0
SECTION
2
HEADER
9
$ACADVER
1
AC1009
9
$DWGCODEPAGE
3
UTF8
9
$INSUNITS
70
4
9
$EXTMIN
10
-2300.0
20
-2300.0
30
0.0
9
$EXTMAX
10
18700.0
20
12550.0
30
0.0
0
ENDSEC
0
SECTION
2
TABLES
0
TABLE
2
LTYPE
70
1
0
LTYPE
2
CONTINUOUS
70
0
3
Solid line
72
65
73
0
40
0.0
0
ENDTAB
0
TABLE
2
STYLE
70
1
0
STYLE
2
STANDARD
70
0
40
0.0
41
0.85
50
0.0
71
0
42
2.5
3
txt
4

0
ENDTAB
0
TABLE
2
LAYER
70
11
0
LAYER
2
00-圖框
70
0
62
7
6
CONTINUOUS
0
LAYER
2
01-結構牆
70
0
62
7
6
CONTINUOUS
0
LAYER
2
02-隔間牆
70
0
62
8
6
CONTINUOUS
0
LAYER
2
03-柱
70
0
62
1
6
CONTINUOUS
0
LAYER
2
04-窗
70
0
62
4
6
CONTINUOUS
0
LAYER
2
05-門
70
0
62
3
6
CONTINUOUS
0
LAYER
2
06-陽台雨遮
70
0
62
9
6
CONTINUOUS
0
LAYER
2
07-固定設備
70
0
62
6
6
CONTINUOUS
0
LAYER
2
08-尺寸
70
0
62
2
6
CONTINUOUS
0
LAYER
2
09-文字
70
0
62
5
6
CONTINUOUS
0
LAYER
2
10-註記
70
0
62
1
6
CONTINUOUS
0
ENDTAB
0
ENDSEC
0
SECTION
2
ENTITIES
0
LINE
8
01-結構牆
10
0
20
0
30
0.0
11
3400
21
0
31
0.0
0
LINE
8
01-結構牆
10
0
20
200
30
0.0
11
3400
21
200
31
0.0
0
LINE
8
01-結構牆
10
0
20
0
30
0.0
11
0
21
200
31
0.0
0
LINE
8
01-結構牆
10
3400
20
0
30
0.0
11
3400
21
200
31
0.0
0
LINE
8
01-結構牆
10
5000
20
0
30
0.0
11
5500
21
0
31
0.0
0
LINE
8
01-結構牆
10
5000
20
200
30
0.0
11
5500
21
200
31
0.0
0
LINE
8
01-結構牆
10
5000
20
0
30
0.0
11
5000
21
200
31
0.0
0
LINE
8
01-結構牆
10
5500
20
0
30
0.0
11
5500
21
200
31
0.0
0
LINE
8
01-結構牆
10
6700
20
0
30
0.0
11
8000
21
0
31
0.0
0
LINE
8
01-結構牆
10
6700
20
200
30
0.0
11
8000
21
200
31
0.0
0
LINE
8
01-結構牆
10
6700
20
0
30
0.0
11
6700
21
200
31
0.0
0
LINE
8
01-結構牆
10
8000
20
0
30
0.0
11
8000
21
200
31
0.0
0
LINE
8
01-結構牆
10
12000
20
0
30
0.0
11
13200
21
0
31
0.0
0
LINE
8
01-結構牆
10
12000
20
200
30
0.0
11
13200
21
200
31
0.0
0
LINE
8
01-結構牆
10
12000
20
0
30
0.0
11
12000
21
200
31
0.0
0
LINE
8
01-結構牆
10
13200
20
0
30
0.0
11
13200
21
200
31
0.0
0
LINE
8
01-結構牆
10
0
20
10200
30
0.0
11
2400
21
10200
31
0.0
0
LINE
8
01-結構牆
10
0
20
10400
30
0.0
11
2400
21
10400
31
0.0
0
LINE
8
01-結構牆
10
0
20
10200
30
0.0
11
0
21
10400
31
0.0
0
LINE
8
01-結構牆
10
2400
20
10200
30
0.0
11
2400
21
10400
31
0.0
0
LINE
8
01-結構牆
10
4600
20
10200
30
0.0
11
7400
21
10200
31
0.0
0
LINE
8
01-結構牆
10
4600
20
10400
30
0.0
11
7400
21
10400
31
0.0
0
LINE
8
01-結構牆
10
4600
20
10200
30
0.0
11
4600
21
10400
31
0.0
0
LINE
8
01-結構牆
10
7400
20
10200
30
0.0
11
7400
21
10400
31
0.0
0
LINE
8
01-結構牆
10
9600
20
10200
30
0.0
11
11000
21
10200
31
0.0
0
LINE
8
01-結構牆
10
9600
20
10400
30
0.0
11
11000
21
10400
31
0.0
0
LINE
8
01-結構牆
10
9600
20
10200
30
0.0
11
9600
21
10400
31
0.0
0
LINE
8
01-結構牆
10
11000
20
10200
30
0.0
11
11000
21
10400
31
0.0
0
LINE
8
01-結構牆
10
12600
20
10200
30
0.0
11
13200
21
10200
31
0.0
0
LINE
8
01-結構牆
10
12600
20
10400
30
0.0
11
13200
21
10400
31
0.0
0
LINE
8
01-結構牆
10
12600
20
10200
30
0.0
11
12600
21
10400
31
0.0
0
LINE
8
01-結構牆
10
13200
20
10200
30
0.0
11
13200
21
10400
31
0.0
0
LINE
8
01-結構牆
10
0
20
0
30
0.0
11
0
21
600
31
0.0
0
LINE
8
01-結構牆
10
200
20
0
30
0.0
11
200
21
600
31
0.0
0
LINE
8
01-結構牆
10
0
20
0
30
0.0
11
200
21
0
31
0.0
0
LINE
8
01-結構牆
10
0
20
600
30
0.0
11
200
21
600
31
0.0
0
LINE
8
01-結構牆
10
0
20
1600
30
0.0
11
0
21
3200
31
0.0
0
LINE
8
01-結構牆
10
200
20
1600
30
0.0
11
200
21
3200
31
0.0
0
LINE
8
01-結構牆
10
0
20
1600
30
0.0
11
200
21
1600
31
0.0
0
LINE
8
01-結構牆
10
0
20
3200
30
0.0
11
200
21
3200
31
0.0
0
LINE
8
01-結構牆
10
0
20
5700
30
0.0
11
0
21
7000
31
0.0
0
LINE
8
01-結構牆
10
200
20
5700
30
0.0
11
200
21
7000
31
0.0
0
LINE
8
01-結構牆
10
0
20
5700
30
0.0
11
200
21
5700
31
0.0
0
LINE
8
01-結構牆
10
0
20
7000
30
0.0
11
200
21
7000
31
0.0
0
LINE
8
01-結構牆
10
0
20
9700
30
0.0
11
0
21
10400
31
0.0
0
LINE
8
01-結構牆
10
200
20
9700
30
0.0
11
200
21
10400
31
0.0
0
LINE
8
01-結構牆
10
0
20
9700
30
0.0
11
200
21
9700
31
0.0
0
LINE
8
01-結構牆
10
0
20
10400
30
0.0
11
200
21
10400
31
0.0
0
LINE
8
01-結構牆
10
13000
20
0
30
0.0
11
13000
21
1500
31
0.0
0
LINE
8
01-結構牆
10
13200
20
0
30
0.0
11
13200
21
1500
31
0.0
0
LINE
8
01-結構牆
10
13000
20
0
30
0.0
11
13200
21
0
31
0.0
0
LINE
8
01-結構牆
10
13000
20
1500
30
0.0
11
13200
21
1500
31
0.0
0
LINE
8
01-結構牆
10
13000
20
4500
30
0.0
11
13000
21
6300
31
0.0
0
LINE
8
01-結構牆
10
13200
20
4500
30
0.0
11
13200
21
6300
31
0.0
0
LINE
8
01-結構牆
10
13000
20
4500
30
0.0
11
13200
21
4500
31
0.0
0
LINE
8
01-結構牆
10
13000
20
6300
30
0.0
11
13200
21
6300
31
0.0
0
LINE
8
01-結構牆
10
10400
20
6100
30
0.0
11
13200
21
6100
31
0.0
0
LINE
8
01-結構牆
10
10400
20
6300
30
0.0
11
13200
21
6300
31
0.0
0
LINE
8
01-結構牆
10
10400
20
6100
30
0.0
11
10400
21
6300
31
0.0
0
LINE
8
01-結構牆
10
13200
20
6100
30
0.0
11
13200
21
6300
31
0.0
0
LINE
8
01-結構牆
10
10400
20
6300
30
0.0
11
10400
21
7400
31
0.0
0
LINE
8
01-結構牆
10
10600
20
6300
30
0.0
11
10600
21
7400
31
0.0
0
LINE
8
01-結構牆
10
10400
20
6300
30
0.0
11
10600
21
6300
31
0.0
0
LINE
8
01-結構牆
10
10400
20
7400
30
0.0
11
10600
21
7400
31
0.0
0
LINE
8
01-結構牆
10
10400
20
7400
30
0.0
11
13200
21
7400
31
0.0
0
LINE
8
01-結構牆
10
10400
20
7600
30
0.0
11
13200
21
7600
31
0.0
0
LINE
8
01-結構牆
10
10400
20
7400
30
0.0
11
10400
21
7600
31
0.0
0
LINE
8
01-結構牆
10
13200
20
7400
30
0.0
11
13200
21
7600
31
0.0
0
LINE
8
01-結構牆
10
13000
20
7400
30
0.0
11
13000
21
8000
31
0.0
0
LINE
8
01-結構牆
10
13200
20
7400
30
0.0
11
13200
21
8000
31
0.0
0
LINE
8
01-結構牆
10
13000
20
7400
30
0.0
11
13200
21
7400
31
0.0
0
LINE
8
01-結構牆
10
13000
20
8000
30
0.0
11
13200
21
8000
31
0.0
0
LINE
8
01-結構牆
10
13000
20
9800
30
0.0
11
13000
21
10400
31
0.0
0
LINE
8
01-結構牆
10
13200
20
9800
30
0.0
11
13200
21
10400
31
0.0
0
LINE
8
01-結構牆
10
13000
20
9800
30
0.0
11
13200
21
9800
31
0.0
0
LINE
8
01-結構牆
10
13000
20
10400
30
0.0
11
13200
21
10400
31
0.0
0
LINE
8
02-隔間牆
10
1640.0
20
6300
30
0.0
11
1640.0
21
7800
31
0.0
0
LINE
8
02-隔間牆
10
1760.0
20
6300
30
0.0
11
1760.0
21
7800
31
0.0
0
LINE
8
02-隔間牆
10
1640.0
20
6300
30
0.0
11
1760.0
21
6300
31
0.0
0
LINE
8
02-隔間牆
10
1640.0
20
7800
30
0.0
11
1760.0
21
7800
31
0.0
0
LINE
8
02-隔間牆
10
1640.0
20
9000
30
0.0
11
1640.0
21
10400
31
0.0
0
LINE
8
02-隔間牆
10
1760.0
20
9000
30
0.0
11
1760.0
21
10400
31
0.0
0
LINE
8
02-隔間牆
10
1640.0
20
9000
30
0.0
11
1760.0
21
9000
31
0.0
0
LINE
8
02-隔間牆
10
1640.0
20
10400
30
0.0
11
1760.0
21
10400
31
0.0
0
LINE
8
02-隔間牆
10
5340.0
20
0
30
0.0
11
5340.0
21
900
31
0.0
0
LINE
8
02-隔間牆
10
5460.0
20
0
30
0.0
11
5460.0
21
900
31
0.0
0
LINE
8
02-隔間牆
10
5340.0
20
0
30
0.0
11
5460.0
21
0
31
0.0
0
LINE
8
02-隔間牆
10
5340.0
20
900
30
0.0
11
5460.0
21
900
31
0.0
0
LINE
8
02-隔間牆
10
5340.0
20
1800
30
0.0
11
5340.0
21
4700
31
0.0
0
LINE
8
02-隔間牆
10
5460.0
20
1800
30
0.0
11
5460.0
21
4700
31
0.0
0
LINE
8
02-隔間牆
10
5340.0
20
1800
30
0.0
11
5460.0
21
1800
31
0.0
0
LINE
8
02-隔間牆
10
5340.0
20
4700
30
0.0
11
5460.0
21
4700
31
0.0
0
LINE
8
02-隔間牆
10
5340.0
20
5600
30
0.0
11
5340.0
21
8000
31
0.0
0
LINE
8
02-隔間牆
10
5460.0
20
5600
30
0.0
11
5460.0
21
8000
31
0.0
0
LINE
8
02-隔間牆
10
5340.0
20
5600
30
0.0
11
5460.0
21
5600
31
0.0
0
LINE
8
02-隔間牆
10
5340.0
20
8000
30
0.0
11
5460.0
21
8000
31
0.0
0
LINE
8
02-隔間牆
10
5340.0
20
8900
30
0.0
11
5340.0
21
10400
31
0.0
0
LINE
8
02-隔間牆
10
5460.0
20
8900
30
0.0
11
5460.0
21
10400
31
0.0
0
LINE
8
02-隔間牆
10
5340.0
20
8900
30
0.0
11
5460.0
21
8900
31
0.0
0
LINE
8
02-隔間牆
10
5340.0
20
10400
30
0.0
11
5460.0
21
10400
31
0.0
0
LINE
8
02-隔間牆
10
6740.0
20
4400
30
0.0
11
6740.0
21
5100
31
0.0
0
LINE
8
02-隔間牆
10
6860.0
20
4400
30
0.0
11
6860.0
21
5100
31
0.0
0
LINE
8
02-隔間牆
10
6740.0
20
4400
30
0.0
11
6860.0
21
4400
31
0.0
0
LINE
8
02-隔間牆
10
6740.0
20
5100
30
0.0
11
6860.0
21
5100
31
0.0
0
LINE
8
02-隔間牆
10
6740.0
20
6000
30
0.0
11
6740.0
21
7000
31
0.0
0
LINE
8
02-隔間牆
10
6860.0
20
6000
30
0.0
11
6860.0
21
7000
31
0.0
0
LINE
8
02-隔間牆
10
6740.0
20
6000
30
0.0
11
6860.0
21
6000
31
0.0
0
LINE
8
02-隔間牆
10
6740.0
20
7000
30
0.0
11
6860.0
21
7000
31
0.0
0
LINE
8
02-隔間牆
10
6740.0
20
7900
30
0.0
11
6740.0
21
10400
31
0.0
0
LINE
8
02-隔間牆
10
6860.0
20
7900
30
0.0
11
6860.0
21
10400
31
0.0
0
LINE
8
02-隔間牆
10
6740.0
20
7900
30
0.0
11
6860.0
21
7900
31
0.0
0
LINE
8
02-隔間牆
10
6740.0
20
10400
30
0.0
11
6860.0
21
10400
31
0.0
0
LINE
8
02-隔間牆
10
2940.0
20
0
30
0.0
11
2940.0
21
2600
31
0.0
0
LINE
8
02-隔間牆
10
3060.0
20
0
30
0.0
11
3060.0
21
2600
31
0.0
0
LINE
8
02-隔間牆
10
2940.0
20
0
30
0.0
11
3060.0
21
0
31
0.0
0
LINE
8
02-隔間牆
10
2940.0
20
2600
30
0.0
11
3060.0
21
2600
31
0.0
0
LINE
8
02-隔間牆
10
8940.0
20
4400
30
0.0
11
8940.0
21
6300
31
0.0
0
LINE
8
02-隔間牆
10
9060.0
20
4400
30
0.0
11
9060.0
21
6300
31
0.0
0
LINE
8
02-隔間牆
10
8940.0
20
4400
30
0.0
11
9060.0
21
4400
31
0.0
0
LINE
8
02-隔間牆
10
8940.0
20
6300
30
0.0
11
9060.0
21
6300
31
0.0
0
LINE
8
02-隔間牆
10
10340.0
20
7400
30
0.0
11
10340.0
21
8500
31
0.0
0
LINE
8
02-隔間牆
10
10460.0
20
7400
30
0.0
11
10460.0
21
8500
31
0.0
0
LINE
8
02-隔間牆
10
10340.0
20
7400
30
0.0
11
10460.0
21
7400
31
0.0
0
LINE
8
02-隔間牆
10
10340.0
20
8500
30
0.0
11
10460.0
21
8500
31
0.0
0
LINE
8
02-隔間牆
10
10340.0
20
9400
30
0.0
11
10340.0
21
10400
31
0.0
0
LINE
8
02-隔間牆
10
10460.0
20
9400
30
0.0
11
10460.0
21
10400
31
0.0
0
LINE
8
02-隔間牆
10
10340.0
20
9400
30
0.0
11
10460.0
21
9400
31
0.0
0
LINE
8
02-隔間牆
10
10340.0
20
10400
30
0.0
11
10460.0
21
10400
31
0.0
0
LINE
8
02-隔間牆
10
0
20
2540.0
30
0.0
11
1800
21
2540.0
31
0.0
0
LINE
8
02-隔間牆
10
0
20
2660.0
30
0.0
11
1800
21
2660.0
31
0.0
0
LINE
8
02-隔間牆
10
0
20
2540.0
30
0.0
11
0
21
2660.0
31
0.0
0
LINE
8
02-隔間牆
10
1800
20
2540.0
30
0.0
11
1800
21
2660.0
31
0.0
0
LINE
8
02-隔間牆
10
2700
20
2540.0
30
0.0
11
5400
21
2540.0
31
0.0
0
LINE
8
02-隔間牆
10
2700
20
2660.0
30
0.0
11
5400
21
2660.0
31
0.0
0
LINE
8
02-隔間牆
10
2700
20
2540.0
30
0.0
11
2700
21
2660.0
31
0.0
0
LINE
8
02-隔間牆
10
5400
20
2540.0
30
0.0
11
5400
21
2660.0
31
0.0
0
LINE
8
02-隔間牆
10
6800
20
4340.0
30
0.0
11
9000
21
4340.0
31
0.0
0
LINE
8
02-隔間牆
10
6800
20
4460.0
30
0.0
11
9000
21
4460.0
31
0.0
0
LINE
8
02-隔間牆
10
6800
20
4340.0
30
0.0
11
6800
21
4460.0
31
0.0
0
LINE
8
02-隔間牆
10
9000
20
4340.0
30
0.0
11
9000
21
4460.0
31
0.0
0
LINE
8
02-隔間牆
10
0
20
6240.0
30
0.0
11
5400
21
6240.0
31
0.0
0
LINE
8
02-隔間牆
10
0
20
6360.0
30
0.0
11
5400
21
6360.0
31
0.0
0
LINE
8
02-隔間牆
10
0
20
6240.0
30
0.0
11
0
21
6360.0
31
0.0
0
LINE
8
02-隔間牆
10
5400
20
6240.0
30
0.0
11
5400
21
6360.0
31
0.0
0
LINE
8
02-隔間牆
10
6800
20
6240.0
30
0.0
11
10400
21
6240.0
31
0.0
0
LINE
8
02-隔間牆
10
6800
20
6360.0
30
0.0
11
10400
21
6360.0
31
0.0
0
LINE
8
02-隔間牆
10
6800
20
6240.0
30
0.0
11
6800
21
6360.0
31
0.0
0
LINE
8
02-隔間牆
10
10400
20
6240.0
30
0.0
11
10400
21
6360.0
31
0.0
0
LINE
8
05-門
10
5500
20
0
30
0.0
11
5500
21
1200
31
0.0
0
LINE
8
05-門
10
5540
20
0
30
0.0
11
5540
21
1200
31
0.0
0
LINE
8
05-門
10
5500
20
0
30
0.0
11
5540
21
0
31
0.0
0
LINE
8
05-門
10
5500
20
1200
30
0.0
11
5540
21
1200
31
0.0
0
ARC
8
05-門
10
5500
20
0
30
0.0
40
1200
50
0
51
90
0
LINE
8
05-門
10
5400
20
8000
30
0.0
11
6300
21
8000
31
0.0
0
LINE
8
05-門
10
5400
20
8040
30
0.0
11
6300
21
8040
31
0.0
0
LINE
8
05-門
10
5400
20
8000
30
0.0
11
5400
21
8040
31
0.0
0
LINE
8
05-門
10
6300
20
8000
30
0.0
11
6300
21
8040
31
0.0
0
ARC
8
05-門
10
5400
20
8000
30
0.0
40
900
50
0
51
90
0
LINE
8
05-門
10
5400
20
4700
30
0.0
11
6300
21
4700
31
0.0
0
LINE
8
05-門
10
5400
20
4740
30
0.0
11
6300
21
4740
31
0.0
0
LINE
8
05-門
10
5400
20
4700
30
0.0
11
5400
21
4740
31
0.0
0
LINE
8
05-門
10
6300
20
4700
30
0.0
11
6300
21
4740
31
0.0
0
ARC
8
05-門
10
5400
20
4700
30
0.0
40
900
50
0
51
90
0
LINE
8
05-門
10
5400
20
900
30
0.0
11
6300
21
900
31
0.0
0
LINE
8
05-門
10
5400
20
940
30
0.0
11
6300
21
940
31
0.0
0
LINE
8
05-門
10
5400
20
900
30
0.0
11
5400
21
940
31
0.0
0
LINE
8
05-門
10
6300
20
900
30
0.0
11
6300
21
940
31
0.0
0
ARC
8
05-門
10
5400
20
900
30
0.0
40
900
50
0
51
90
0
LINE
8
05-門
10
1800
20
2600
30
0.0
11
1800
21
1700
31
0.0
0
LINE
8
05-門
10
1840
20
2600
30
0.0
11
1840
21
1700
31
0.0
0
LINE
8
05-門
10
1800
20
2600
30
0.0
11
1840
21
2600
31
0.0
0
LINE
8
05-門
10
1800
20
1700
30
0.0
11
1840
21
1700
31
0.0
0
ARC
8
05-門
10
1800
20
2600
30
0.0
40
900
50
270
51
0
0
LINE
8
05-門
10
6800
20
5100
30
0.0
11
5900
21
5100
31
0.0
0
LINE
8
05-門
10
6800
20
5140
30
0.0
11
5900
21
5140
31
0.0
0
LINE
8
05-門
10
6800
20
5100
30
0.0
11
6800
21
5140
31
0.0
0
LINE
8
05-門
10
5900
20
5100
30
0.0
11
5900
21
5140
31
0.0
0
ARC
8
05-門
10
6800
20
5100
30
0.0
40
900
50
90
51
180
0
LINE
8
05-門
10
6800
20
7000
30
0.0
11
7700
21
7000
31
0.0
0
LINE
8
05-門
10
6800
20
7040
30
0.0
11
7700
21
7040
31
0.0
0
LINE
8
05-門
10
6800
20
7000
30
0.0
11
6800
21
7040
31
0.0
0
LINE
8
05-門
10
7700
20
7000
30
0.0
11
7700
21
7040
31
0.0
0
ARC
8
05-門
10
6800
20
7000
30
0.0
40
900
50
0
51
90
0
LINE
8
05-門
10
10400
20
8500
30
0.0
11
9500
21
8500
31
0.0
0
LINE
8
05-門
10
10400
20
8540
30
0.0
11
9500
21
8540
31
0.0
0
LINE
8
05-門
10
10400
20
8500
30
0.0
11
10400
21
8540
31
0.0
0
LINE
8
05-門
10
9500
20
8500
30
0.0
11
9500
21
8540
31
0.0
0
ARC
8
05-門
10
10400
20
8500
30
0.0
40
900
50
90
51
180
0
LINE
8
05-門
10
1700
20
7800
30
0.0
11
2900
21
7800
31
0.0
0
LINE
8
05-門
10
1700
20
7840
30
0.0
11
2900
21
7840
31
0.0
0
LINE
8
05-門
10
1700
20
7800
30
0.0
11
1700
21
7840
31
0.0
0
LINE
8
05-門
10
2900
20
7800
30
0.0
11
2900
21
7840
31
0.0
0
ARC
8
05-門
10
1700
20
7800
30
0.0
40
1200
50
0
51
90
0
LINE
8
04-窗
10
2400
20
10200.0
30
0.0
11
4600
21
10200.0
31
0.0
0
LINE
8
04-窗
10
2400
20
10266.666666666666
30
0.0
11
4600
21
10266.666666666666
31
0.0
0
LINE
8
04-窗
10
2400
20
10333.333333333334
30
0.0
11
4600
21
10333.333333333334
31
0.0
0
LINE
8
04-窗
10
2400
20
10400.0
30
0.0
11
4600
21
10400.0
31
0.0
0
LINE
8
04-窗
10
2400
20
10200
30
0.0
11
2400
21
10400
31
0.0
0
LINE
8
04-窗
10
4600
20
10200
30
0.0
11
4600
21
10400
31
0.0
0
LINE
8
04-窗
10
7400
20
10200.0
30
0.0
11
9600
21
10200.0
31
0.0
0
LINE
8
04-窗
10
7400
20
10266.666666666666
30
0.0
11
9600
21
10266.666666666666
31
0.0
0
LINE
8
04-窗
10
7400
20
10333.333333333334
30
0.0
11
9600
21
10333.333333333334
31
0.0
0
LINE
8
04-窗
10
7400
20
10400.0
30
0.0
11
9600
21
10400.0
31
0.0
0
LINE
8
04-窗
10
7400
20
10200
30
0.0
11
7400
21
10400
31
0.0
0
LINE
8
04-窗
10
9600
20
10200
30
0.0
11
9600
21
10400
31
0.0
0
LINE
8
04-窗
10
11000
20
10200.0
30
0.0
11
12600
21
10200.0
31
0.0
0
LINE
8
04-窗
10
11000
20
10266.666666666666
30
0.0
11
12600
21
10266.666666666666
31
0.0
0
LINE
8
04-窗
10
11000
20
10333.333333333334
30
0.0
11
12600
21
10333.333333333334
31
0.0
0
LINE
8
04-窗
10
11000
20
10400.0
30
0.0
11
12600
21
10400.0
31
0.0
0
LINE
8
04-窗
10
11000
20
10200
30
0.0
11
11000
21
10400
31
0.0
0
LINE
8
04-窗
10
12600
20
10200
30
0.0
11
12600
21
10400
31
0.0
0
LINE
8
04-窗
10
0.0
20
7000
30
0.0
11
0.0
21
9700
31
0.0
0
LINE
8
04-窗
10
66.66666666666667
20
7000
30
0.0
11
66.66666666666667
21
9700
31
0.0
0
LINE
8
04-窗
10
133.33333333333334
20
7000
30
0.0
11
133.33333333333334
21
9700
31
0.0
0
LINE
8
04-窗
10
200.0
20
7000
30
0.0
11
200.0
21
9700
31
0.0
0
LINE
8
04-窗
10
0
20
7000
30
0.0
11
200
21
7000
31
0.0
0
LINE
8
04-窗
10
0
20
9700
30
0.0
11
200
21
9700
31
0.0
0
LINE
8
04-窗
10
0.0
20
3200
30
0.0
11
0.0
21
5700
31
0.0
0
LINE
8
04-窗
10
66.66666666666667
20
3200
30
0.0
11
66.66666666666667
21
5700
31
0.0
0
LINE
8
04-窗
10
133.33333333333334
20
3200
30
0.0
11
133.33333333333334
21
5700
31
0.0
0
LINE
8
04-窗
10
200.0
20
3200
30
0.0
11
200.0
21
5700
31
0.0
0
LINE
8
04-窗
10
0
20
3200
30
0.0
11
200
21
3200
31
0.0
0
LINE
8
04-窗
10
0
20
5700
30
0.0
11
200
21
5700
31
0.0
0
LINE
8
04-窗
10
0.0
20
600
30
0.0
11
0.0
21
1600
31
0.0
0
LINE
8
04-窗
10
66.66666666666667
20
600
30
0.0
11
66.66666666666667
21
1600
31
0.0
0
LINE
8
04-窗
10
133.33333333333334
20
600
30
0.0
11
133.33333333333334
21
1600
31
0.0
0
LINE
8
04-窗
10
200.0
20
600
30
0.0
11
200.0
21
1600
31
0.0
0
LINE
8
04-窗
10
0
20
600
30
0.0
11
200
21
600
31
0.0
0
LINE
8
04-窗
10
0
20
1600
30
0.0
11
200
21
1600
31
0.0
0
LINE
8
04-窗
10
3400
20
0.0
30
0.0
11
5000
21
0.0
31
0.0
0
LINE
8
04-窗
10
3400
20
66.66666666666667
30
0.0
11
5000
21
66.66666666666667
31
0.0
0
LINE
8
04-窗
10
3400
20
133.33333333333334
30
0.0
11
5000
21
133.33333333333334
31
0.0
0
LINE
8
04-窗
10
3400
20
200.0
30
0.0
11
5000
21
200.0
31
0.0
0
LINE
8
04-窗
10
3400
20
0
30
0.0
11
3400
21
200
31
0.0
0
LINE
8
04-窗
10
5000
20
0
30
0.0
11
5000
21
200
31
0.0
0
LINE
8
04-窗
10
8000
20
0.0
30
0.0
11
12000
21
0.0
31
0.0
0
LINE
8
04-窗
10
8000
20
66.66666666666667
30
0.0
11
12000
21
66.66666666666667
31
0.0
0
LINE
8
04-窗
10
8000
20
133.33333333333334
30
0.0
11
12000
21
133.33333333333334
31
0.0
0
LINE
8
04-窗
10
8000
20
200.0
30
0.0
11
12000
21
200.0
31
0.0
0
LINE
8
04-窗
10
8000
20
0
30
0.0
11
8000
21
200
31
0.0
0
LINE
8
04-窗
10
12000
20
0
30
0.0
11
12000
21
200
31
0.0
0
LINE
8
04-窗
10
13000.0
20
1500
30
0.0
11
13000.0
21
4500
31
0.0
0
LINE
8
04-窗
10
13066.666666666666
20
1500
30
0.0
11
13066.666666666666
21
4500
31
0.0
0
LINE
8
04-窗
10
13133.333333333334
20
1500
30
0.0
11
13133.333333333334
21
4500
31
0.0
0
LINE
8
04-窗
10
13200.0
20
1500
30
0.0
11
13200.0
21
4500
31
0.0
0
LINE
8
04-窗
10
13000
20
1500
30
0.0
11
13200
21
1500
31
0.0
0
LINE
8
04-窗
10
13000
20
4500
30
0.0
11
13200
21
4500
31
0.0
0
LINE
8
04-窗
10
13000.0
20
8000
30
0.0
11
13000.0
21
9800
31
0.0
0
LINE
8
04-窗
10
13066.666666666666
20
8000
30
0.0
11
13066.666666666666
21
9800
31
0.0
0
LINE
8
04-窗
10
13133.333333333334
20
8000
30
0.0
11
13133.333333333334
21
9800
31
0.0
0
LINE
8
04-窗
10
13200.0
20
8000
30
0.0
11
13200.0
21
9800
31
0.0
0
LINE
8
04-窗
10
13000
20
8000
30
0.0
11
13200
21
8000
31
0.0
0
LINE
8
04-窗
10
13000
20
9800
30
0.0
11
13200
21
9800
31
0.0
0
SOLID
8
03-柱
10
0.0
20
0.0
30
0.0
11
500.0
21
0.0
31
0.0
12
0.0
22
500.0
32
0.0
13
500.0
23
500.0
33
0.0
0
LINE
8
03-柱
10
0.0
20
0.0
30
0.0
11
500.0
21
0.0
31
0.0
0
LINE
8
03-柱
10
500.0
20
0.0
30
0.0
11
500.0
21
500.0
31
0.0
0
LINE
8
03-柱
10
500.0
20
500.0
30
0.0
11
0.0
21
500.0
31
0.0
0
LINE
8
03-柱
10
0.0
20
500.0
30
0.0
11
0.0
21
0.0
31
0.0
0
SOLID
8
03-柱
10
12700.0
20
0.0
30
0.0
11
13200.0
21
0.0
31
0.0
12
12700.0
22
500.0
32
0.0
13
13200.0
23
500.0
33
0.0
0
LINE
8
03-柱
10
12700.0
20
0.0
30
0.0
11
13200.0
21
0.0
31
0.0
0
LINE
8
03-柱
10
13200.0
20
0.0
30
0.0
11
13200.0
21
500.0
31
0.0
0
LINE
8
03-柱
10
13200.0
20
500.0
30
0.0
11
12700.0
21
500.0
31
0.0
0
LINE
8
03-柱
10
12700.0
20
500.0
30
0.0
11
12700.0
21
0.0
31
0.0
0
SOLID
8
03-柱
10
0.0
20
9900.0
30
0.0
11
500.0
21
9900.0
31
0.0
12
0.0
22
10400.0
32
0.0
13
500.0
23
10400.0
33
0.0
0
LINE
8
03-柱
10
0.0
20
9900.0
30
0.0
11
500.0
21
9900.0
31
0.0
0
LINE
8
03-柱
10
500.0
20
9900.0
30
0.0
11
500.0
21
10400.0
31
0.0
0
LINE
8
03-柱
10
500.0
20
10400.0
30
0.0
11
0.0
21
10400.0
31
0.0
0
LINE
8
03-柱
10
0.0
20
10400.0
30
0.0
11
0.0
21
9900.0
31
0.0
0
SOLID
8
03-柱
10
12700.0
20
9900.0
30
0.0
11
13200.0
21
9900.0
31
0.0
12
12700.0
22
10400.0
32
0.0
13
13200.0
23
10400.0
33
0.0
0
LINE
8
03-柱
10
12700.0
20
9900.0
30
0.0
11
13200.0
21
9900.0
31
0.0
0
LINE
8
03-柱
10
13200.0
20
9900.0
30
0.0
11
13200.0
21
10400.0
31
0.0
0
LINE
8
03-柱
10
13200.0
20
10400.0
30
0.0
11
12700.0
21
10400.0
31
0.0
0
LINE
8
03-柱
10
12700.0
20
10400.0
30
0.0
11
12700.0
21
9900.0
31
0.0
0
SOLID
8
03-柱
10
6550.0
20
0.0
30
0.0
11
7050.0
21
0.0
31
0.0
12
6550.0
22
500.0
32
0.0
13
7050.0
23
500.0
33
0.0
0
LINE
8
03-柱
10
6550.0
20
0.0
30
0.0
11
7050.0
21
0.0
31
0.0
0
LINE
8
03-柱
10
7050.0
20
0.0
30
0.0
11
7050.0
21
500.0
31
0.0
0
LINE
8
03-柱
10
7050.0
20
500.0
30
0.0
11
6550.0
21
500.0
31
0.0
0
LINE
8
03-柱
10
6550.0
20
500.0
30
0.0
11
6550.0
21
0.0
31
0.0
0
SOLID
8
03-柱
10
6550.0
20
9900.0
30
0.0
11
7050.0
21
9900.0
31
0.0
12
6550.0
22
10400.0
32
0.0
13
7050.0
23
10400.0
33
0.0
0
LINE
8
03-柱
10
6550.0
20
9900.0
30
0.0
11
7050.0
21
9900.0
31
0.0
0
LINE
8
03-柱
10
7050.0
20
9900.0
30
0.0
11
7050.0
21
10400.0
31
0.0
0
LINE
8
03-柱
10
7050.0
20
10400.0
30
0.0
11
6550.0
21
10400.0
31
0.0
0
LINE
8
03-柱
10
6550.0
20
10400.0
30
0.0
11
6550.0
21
9900.0
31
0.0
0
SOLID
8
03-柱
10
9900.0
20
5800.0
30
0.0
11
10400.0
21
5800.0
31
0.0
12
9900.0
22
6300.0
32
0.0
13
10400.0
23
6300.0
33
0.0
0
LINE
8
03-柱
10
9900.0
20
5800.0
30
0.0
11
10400.0
21
5800.0
31
0.0
0
LINE
8
03-柱
10
10400.0
20
5800.0
30
0.0
11
10400.0
21
6300.0
31
0.0
0
LINE
8
03-柱
10
10400.0
20
6300.0
30
0.0
11
9900.0
21
6300.0
31
0.0
0
LINE
8
03-柱
10
9900.0
20
6300.0
30
0.0
11
9900.0
21
5800.0
31
0.0
0
LINE
8
06-陽台雨遮
10
120
20
6900
30
0.0
11
1580
21
6900
31
0.0
0
LINE
8
06-陽台雨遮
10
120
20
7500
30
0.0
11
1580
21
7500
31
0.0
0
LINE
8
06-陽台雨遮
10
120
20
8100
30
0.0
11
1580
21
8100
31
0.0
0
LINE
8
06-陽台雨遮
10
120
20
8700
30
0.0
11
1580
21
8700
31
0.0
0
LINE
8
06-陽台雨遮
10
120
20
9300
30
0.0
11
1580
21
9300
31
0.0
0
LINE
8
06-陽台雨遮
10
120
20
9900
30
0.0
11
1580
21
9900
31
0.0
0
LINE
8
06-陽台雨遮
10
10520
20
8000
30
0.0
11
13080
21
8000
31
0.0
0
LINE
8
06-陽台雨遮
10
10520
20
8600
30
0.0
11
13080
21
8600
31
0.0
0
LINE
8
06-陽台雨遮
10
10520
20
9200
30
0.0
11
13080
21
9200
31
0.0
0
LINE
8
06-陽台雨遮
10
10520
20
9800
30
0.0
11
13080
21
9800
31
0.0
0
LINE
8
06-陽台雨遮
10
10520
20
6900
30
0.0
11
13080
21
6900
31
0.0
0
LINE
8
07-固定設備
10
200
20
200
30
0.0
11
1800
21
200
31
0.0
0
LINE
8
07-固定設備
10
1800
20
200
30
0.0
11
1800
21
950
31
0.0
0
LINE
8
07-固定設備
10
1800
20
950
30
0.0
11
200
21
950
31
0.0
0
LINE
8
07-固定設備
10
200
20
950
30
0.0
11
200
21
200
31
0.0
0
LINE
8
07-固定設備
10
200
20
200
30
0.0
11
1800
21
950
31
0.0
0
LINE
8
07-固定設備
10
200
20
1100
30
0.0
11
800
21
1100
31
0.0
0
LINE
8
07-固定設備
10
800
20
1100
30
0.0
11
800
21
1550
31
0.0
0
LINE
8
07-固定設備
10
800
20
1550
30
0.0
11
200
21
1550
31
0.0
0
LINE
8
07-固定設備
10
200
20
1550
30
0.0
11
200
21
1100
31
0.0
0
LINE
8
07-固定設備
10
200
20
1100
30
0.0
11
800
21
1550
31
0.0
0
LINE
8
07-固定設備
10
1900
20
250
30
0.0
11
2300
21
250
31
0.0
0
LINE
8
07-固定設備
10
2300
20
250
30
0.0
11
2300
21
950
31
0.0
0
LINE
8
07-固定設備
10
2300
20
950
30
0.0
11
1900
21
950
31
0.0
0
LINE
8
07-固定設備
10
1900
20
950
30
0.0
11
1900
21
250
31
0.0
0
LINE
8
07-固定設備
10
1900
20
250
30
0.0
11
2300
21
950
31
0.0
0
LINE
8
07-固定設備
10
200
20
1750
30
0.0
11
1100
21
1750
31
0.0
0
LINE
8
07-固定設備
10
1100
20
1750
30
0.0
11
1100
21
2650
31
0.0
0
LINE
8
07-固定設備
10
1100
20
2650
30
0.0
11
200
21
2650
31
0.0
0
LINE
8
07-固定設備
10
200
20
2650
30
0.0
11
200
21
1750
31
0.0
0
LINE
8
07-固定設備
10
200
20
1750
30
0.0
11
1100
21
2650
31
0.0
0
LINE
8
07-固定設備
10
7000
20
4600
30
0.0
11
7400
21
4600
31
0.0
0
LINE
8
07-固定設備
10
7400
20
4600
30
0.0
11
7400
21
5300
31
0.0
0
LINE
8
07-固定設備
10
7400
20
5300
30
0.0
11
7000
21
5300
31
0.0
0
LINE
8
07-固定設備
10
7000
20
5300
30
0.0
11
7000
21
4600
31
0.0
0
LINE
8
07-固定設備
10
7000
20
4600
30
0.0
11
7400
21
5300
31
0.0
0
LINE
8
07-固定設備
10
7600
20
4600
30
0.0
11
8200
21
4600
31
0.0
0
LINE
8
07-固定設備
10
8200
20
4600
30
0.0
11
8200
21
5050
31
0.0
0
LINE
8
07-固定設備
10
8200
20
5050
30
0.0
11
7600
21
5050
31
0.0
0
LINE
8
07-固定設備
10
7600
20
5050
30
0.0
11
7600
21
4600
31
0.0
0
LINE
8
07-固定設備
10
7600
20
4600
30
0.0
11
8200
21
5050
31
0.0
0
LINE
8
07-固定設備
10
7000
20
9600
30
0.0
11
10200
21
9600
31
0.0
0
LINE
8
07-固定設備
10
10200
20
9600
30
0.0
11
10200
21
10200
31
0.0
0
LINE
8
07-固定設備
10
10200
20
10200
30
0.0
11
7000
21
10200
31
0.0
0
LINE
8
07-固定設備
10
7000
20
10200
30
0.0
11
7000
21
9600
31
0.0
0
LINE
8
07-固定設備
10
7000
20
9600
30
0.0
11
10200
21
10200
31
0.0
0
LINE
8
07-固定設備
10
7000
20
6500
30
0.0
11
7600
21
6500
31
0.0
0
LINE
8
07-固定設備
10
7600
20
6500
30
0.0
11
7600
21
9600
31
0.0
0
LINE
8
07-固定設備
10
7600
20
9600
30
0.0
11
7000
21
9600
31
0.0
0
LINE
8
07-固定設備
10
7000
20
9600
30
0.0
11
7000
21
6500
31
0.0
0
LINE
8
07-固定設備
10
7000
20
6500
30
0.0
11
7600
21
9600
31
0.0
0
TEXT
8
09-文字
10
850.0
20
8460.0
30
0.0
40
200.0
1
前陽台
50
0.0
7
STANDARD
72
1
11
850.0
21
8460.0
31
0.0
0
TEXT
8
09-文字
10
850.0
20
8220.0
30
0.0
40
130.0
1
5.85 m2 / 1.77 坪
50
0.0
7
STANDARD
72
1
11
850.0
21
8220.0
31
0.0
0
TEXT
8
09-文字
10
3550.0
20
8460.0
30
0.0
40
200.0
1
女兒房1
50
0.0
7
STANDARD
72
1
11
3550.0
21
8460.0
31
0.0
0
TEXT
8
09-文字
10
3550.0
20
8220.0
30
0.0
40
130.0
1
14.25 m2 / 4.31 坪
50
0.0
7
STANDARD
72
1
11
3550.0
21
8220.0
31
0.0
0
TEXT
8
09-文字
10
2700.0
20
4560.0
30
0.0
40
200.0
1
主臥
50
0.0
7
STANDARD
72
1
11
2700.0
21
4560.0
31
0.0
0
TEXT
8
09-文字
10
2700.0
20
4320.0
30
0.0
40
130.0
1
18.90 m2 / 5.72 坪
50
0.0
7
STANDARD
72
1
11
2700.0
21
4320.0
31
0.0
0
TEXT
8
09-文字
10
1500.0
20
1410.0
30
0.0
40
200.0
1
主浴
50
0.0
7
STANDARD
72
1
11
1500.0
21
1410.0
31
0.0
0
TEXT
8
09-文字
10
1500.0
20
1170.0
30
0.0
40
130.0
1
7.14 m2 / 2.16 坪
50
0.0
7
STANDARD
72
1
11
1500.0
21
1170.0
31
0.0
0
TEXT
8
09-文字
10
4200.0
20
1410.0
30
0.0
40
200.0
1
房3
50
0.0
7
STANDARD
72
1
11
4200.0
21
1410.0
31
0.0
0
TEXT
8
09-文字
10
4200.0
20
1170.0
30
0.0
40
130.0
1
5.65 m2 / 1.71 坪
50
0.0
7
STANDARD
72
1
11
4200.0
21
1170.0
31
0.0
0
TEXT
8
09-文字
10
6100.0
20
5310.0
30
0.0
40
200.0
1
玄關.走道
50
0.0
7
STANDARD
72
1
11
6100.0
21
5310.0
31
0.0
0
TEXT
8
09-文字
10
6100.0
20
5070.0
30
0.0
40
130.0
1
13.16 m2 / 3.98 坪
50
0.0
7
STANDARD
72
1
11
6100.0
21
5070.0
31
0.0
0
TEXT
8
09-文字
10
8600.0
20
8460.0
30
0.0
40
200.0
1
廚房
50
0.0
7
STANDARD
72
1
11
8600.0
21
8460.0
31
0.0
0
TEXT
8
09-文字
10
8600.0
20
8220.0
30
0.0
40
130.0
1
13.85 m2 / 4.19 坪
50
0.0
7
STANDARD
72
1
11
8600.0
21
8220.0
31
0.0
0
TEXT
8
09-文字
10
11800.0
20
9010.0
30
0.0
40
200.0
1
後陽台
50
0.0
7
STANDARD
72
1
11
11800.0
21
9010.0
31
0.0
0
TEXT
8
09-文字
10
11800.0
20
8770.0
30
0.0
40
130.0
1
7.28 m2 / 2.20 坪
50
0.0
7
STANDARD
72
1
11
11800.0
21
8770.0
31
0.0
0
TEXT
8
09-文字
10
7900.0
20
5460.0
30
0.0
40
200.0
1
客浴
50
0.0
7
STANDARD
72
1
11
7900.0
21
5460.0
31
0.0
0
TEXT
8
09-文字
10
7900.0
20
5220.0
30
0.0
40
130.0
1
3.70 m2 / 1.12 坪
50
0.0
7
STANDARD
72
1
11
7900.0
21
5220.0
31
0.0
0
TEXT
8
09-文字
10
11100.0
20
5460.0
30
0.0
40
200.0
1
餐廳
50
0.0
7
STANDARD
72
1
11
11100.0
21
5460.0
31
0.0
0
TEXT
8
09-文字
10
11100.0
20
5220.0
30
0.0
40
130.0
1
7.26 m2 / 2.20 坪
50
0.0
7
STANDARD
72
1
11
11100.0
21
5220.0
31
0.0
0
TEXT
8
09-文字
10
10000.0
20
2310.0
30
0.0
40
200.0
1
客廳
50
0.0
7
STANDARD
72
1
11
10000.0
21
2310.0
31
0.0
0
TEXT
8
09-文字
10
10000.0
20
2070.0
30
0.0
40
130.0
1
26.88 m2 / 8.13 坪
50
0.0
7
STANDARD
72
1
11
10000.0
21
2070.0
31
0.0
0
TEXT
8
09-文字
10
11800.0
20
6960.0
30
0.0
40
200.0
1
雨遮
50
0.0
7
STANDARD
72
1
11
11800.0
21
6960.0
31
0.0
0
TEXT
8
09-文字
10
11800.0
20
6720.0
30
0.0
40
130.0
1
2.34 m2 / 0.71 坪
50
0.0
7
STANDARD
72
1
11
11800.0
21
6720.0
31
0.0
0
LINE
8
08-尺寸
10
0
20
0
30
0.0
11
0
21
-820.0
31
0.0
0
LINE
8
08-尺寸
10
1700
20
0
30
0.0
11
1700
21
-820.0
31
0.0
0
LINE
8
08-尺寸
10
5400
20
0
30
0.0
11
5400
21
-820.0
31
0.0
0
LINE
8
08-尺寸
10
6800
20
0
30
0.0
11
6800
21
-820.0
31
0.0
0
LINE
8
08-尺寸
10
10400
20
0
30
0.0
11
10400
21
-820.0
31
0.0
0
LINE
8
08-尺寸
10
13200
20
0
30
0.0
11
13200
21
-820.0
31
0.0
0
LINE
8
08-尺寸
10
0
20
-700.0
30
0.0
11
1700
21
-700.0
31
0.0
0
LINE
8
08-尺寸
10
-80.0
20
-780.0
30
0.0
11
80.0
21
-620.0
31
0.0
0
LINE
8
08-尺寸
10
1620.0
20
-780.0
30
0.0
11
1780.0
21
-620.0
31
0.0
0
TEXT
8
08-尺寸
10
850.0
20
-643.75
30
0.0
40
125.0
1
1700
50
0.0
7
STANDARD
72
1
11
850.0
21
-643.75
31
0.0
0
LINE
8
08-尺寸
10
1700
20
-700.0
30
0.0
11
5400
21
-700.0
31
0.0
0
LINE
8
08-尺寸
10
1620.0
20
-780.0
30
0.0
11
1780.0
21
-620.0
31
0.0
0
LINE
8
08-尺寸
10
5320.0
20
-780.0
30
0.0
11
5480.0
21
-620.0
31
0.0
0
TEXT
8
08-尺寸
10
3550.0
20
-643.75
30
0.0
40
125.0
1
3700
50
0.0
7
STANDARD
72
1
11
3550.0
21
-643.75
31
0.0
0
LINE
8
08-尺寸
10
5400
20
-700.0
30
0.0
11
6800
21
-700.0
31
0.0
0
LINE
8
08-尺寸
10
5320.0
20
-780.0
30
0.0
11
5480.0
21
-620.0
31
0.0
0
LINE
8
08-尺寸
10
6720.0
20
-780.0
30
0.0
11
6880.0
21
-620.0
31
0.0
0
TEXT
8
08-尺寸
10
6100.0
20
-643.75
30
0.0
40
125.0
1
1400
50
0.0
7
STANDARD
72
1
11
6100.0
21
-643.75
31
0.0
0
LINE
8
08-尺寸
10
6800
20
-700.0
30
0.0
11
10400
21
-700.0
31
0.0
0
LINE
8
08-尺寸
10
6720.0
20
-780.0
30
0.0
11
6880.0
21
-620.0
31
0.0
0
LINE
8
08-尺寸
10
10320.0
20
-780.0
30
0.0
11
10480.0
21
-620.0
31
0.0
0
TEXT
8
08-尺寸
10
8600.0
20
-643.75
30
0.0
40
125.0
1
3600
50
0.0
7
STANDARD
72
1
11
8600.0
21
-643.75
31
0.0
0
LINE
8
08-尺寸
10
10400
20
-700.0
30
0.0
11
13200
21
-700.0
31
0.0
0
LINE
8
08-尺寸
10
10320.0
20
-780.0
30
0.0
11
10480.0
21
-620.0
31
0.0
0
LINE
8
08-尺寸
10
13120.0
20
-780.0
30
0.0
11
13280.0
21
-620.0
31
0.0
0
TEXT
8
08-尺寸
10
11800.0
20
-643.75
30
0.0
40
125.0
1
2800
50
0.0
7
STANDARD
72
1
11
11800.0
21
-643.75
31
0.0
0
LINE
8
08-尺寸
10
0
20
-1150.0
30
0.0
11
13200
21
-1150.0
31
0.0
0
LINE
8
08-尺寸
10
-80.0
20
-1230.0
30
0.0
11
80.0
21
-1070.0
31
0.0
0
LINE
8
08-尺寸
10
13120.0
20
-1230.0
30
0.0
11
13280.0
21
-1070.0
31
0.0
0
TEXT
8
08-尺寸
10
6600.0
20
-1093.75
30
0.0
40
125.0
1
13200
50
0.0
7
STANDARD
72
1
11
6600.0
21
-1093.75
31
0.0
0
LINE
8
08-尺寸
10
0
20
0
30
0.0
11
-580.0
21
0
31
0.0
0
LINE
8
08-尺寸
10
0
20
2600
30
0.0
11
-580.0
21
2600
31
0.0
0
LINE
8
08-尺寸
10
0
20
4400
30
0.0
11
-580.0
21
4400
31
0.0
0
LINE
8
08-尺寸
10
0
20
6300
30
0.0
11
-580.0
21
6300
31
0.0
0
LINE
8
08-尺寸
10
0
20
7400
30
0.0
11
-580.0
21
7400
31
0.0
0
LINE
8
08-尺寸
10
0
20
10400
30
0.0
11
-580.0
21
10400
31
0.0
0
LINE
8
08-尺寸
10
-700.0
20
0
30
0.0
11
-700.0
21
2600
31
0.0
0
LINE
8
08-尺寸
10
-780.0
20
-80.0
30
0.0
11
-620.0
21
80.0
31
0.0
0
LINE
8
08-尺寸
10
-780.0
20
2520.0
30
0.0
11
-620.0
21
2680.0
31
0.0
0
TEXT
8
08-尺寸
10
-756.25
20
1300.0
30
0.0
40
125.0
1
2600
50
90
7
STANDARD
72
1
11
-756.25
21
1300.0
31
0.0
0
LINE
8
08-尺寸
10
-700.0
20
2600
30
0.0
11
-700.0
21
4400
31
0.0
0
LINE
8
08-尺寸
10
-780.0
20
2520.0
30
0.0
11
-620.0
21
2680.0
31
0.0
0
LINE
8
08-尺寸
10
-780.0
20
4320.0
30
0.0
11
-620.0
21
4480.0
31
0.0
0
TEXT
8
08-尺寸
10
-756.25
20
3500.0
30
0.0
40
125.0
1
1800
50
90
7
STANDARD
72
1
11
-756.25
21
3500.0
31
0.0
0
LINE
8
08-尺寸
10
-700.0
20
4400
30
0.0
11
-700.0
21
6300
31
0.0
0
LINE
8
08-尺寸
10
-780.0
20
4320.0
30
0.0
11
-620.0
21
4480.0
31
0.0
0
LINE
8
08-尺寸
10
-780.0
20
6220.0
30
0.0
11
-620.0
21
6380.0
31
0.0
0
TEXT
8
08-尺寸
10
-756.25
20
5350.0
30
0.0
40
125.0
1
1900
50
90
7
STANDARD
72
1
11
-756.25
21
5350.0
31
0.0
0
LINE
8
08-尺寸
10
-700.0
20
6300
30
0.0
11
-700.0
21
7400
31
0.0
0
LINE
8
08-尺寸
10
-780.0
20
6220.0
30
0.0
11
-620.0
21
6380.0
31
0.0
0
LINE
8
08-尺寸
10
-780.0
20
7320.0
30
0.0
11
-620.0
21
7480.0
31
0.0
0
TEXT
8
08-尺寸
10
-756.25
20
6850.0
30
0.0
40
125.0
1
1100
50
90
7
STANDARD
72
1
11
-756.25
21
6850.0
31
0.0
0
LINE
8
08-尺寸
10
-700.0
20
7400
30
0.0
11
-700.0
21
10400
31
0.0
0
LINE
8
08-尺寸
10
-780.0
20
7320.0
30
0.0
11
-620.0
21
7480.0
31
0.0
0
LINE
8
08-尺寸
10
-780.0
20
10320.0
30
0.0
11
-620.0
21
10480.0
31
0.0
0
TEXT
8
08-尺寸
10
-756.25
20
8900.0
30
0.0
40
125.0
1
3000
50
90
7
STANDARD
72
1
11
-756.25
21
8900.0
31
0.0
0
LINE
8
08-尺寸
10
-250.0
20
0
30
0.0
11
-250.0
21
10400
31
0.0
0
LINE
8
08-尺寸
10
-330.0
20
-80.0
30
0.0
11
-170.0
21
80.0
31
0.0
0
LINE
8
08-尺寸
10
-330.0
20
10320.0
30
0.0
11
-170.0
21
10480.0
31
0.0
0
TEXT
8
08-尺寸
10
-306.25
20
5200.0
30
0.0
40
125.0
1
10400
50
90
7
STANDARD
72
1
11
-306.25
21
5200.0
31
0.0
0
LINE
8
00-圖框
10
-2300.0
20
-2300.0
30
0.0
11
18700.0
21
-2300.0
31
0.0
0
LINE
8
00-圖框
10
18700.0
20
-2300.0
30
0.0
11
18700.0
21
12550.0
31
0.0
0
LINE
8
00-圖框
10
18700.0
20
12550.0
30
0.0
11
-2300.0
21
12550.0
31
0.0
0
LINE
8
00-圖框
10
-2300.0
20
12550.0
30
0.0
11
-2300.0
21
-2300.0
31
0.0
0
LINE
8
00-圖框
10
-1900.0
20
-1900.0
30
0.0
11
18300.0
21
-1900.0
31
0.0
0
LINE
8
00-圖框
10
18300.0
20
-1900.0
30
0.0
11
18300.0
21
12150.0
31
0.0
0
LINE
8
00-圖框
10
18300.0
20
12150.0
30
0.0
11
-1900.0
21
12150.0
31
0.0
0
LINE
8
00-圖框
10
-1900.0
20
12150.0
30
0.0
11
-1900.0
21
-1900.0
31
0.0
0
LINE
8
00-圖框
10
12300.0
20
-1900.0
30
0.0
11
18300.0
21
-1900.0
31
0.0
0
LINE
8
00-圖框
10
18300.0
20
-1900.0
30
0.0
11
18300.0
21
-200.0
31
0.0
0
LINE
8
00-圖框
10
18300.0
20
-200.0
30
0.0
11
12300.0
21
-200.0
31
0.0
0
LINE
8
00-圖框
10
12300.0
20
-200.0
30
0.0
11
12300.0
21
-1900.0
31
0.0
0
LINE
8
00-圖框
10
12300.0
20
-800.0
30
0.0
11
18300.0
21
-800.0
31
0.0
0
LINE
8
00-圖框
10
12300.0
20
-1350.0
30
0.0
11
18300.0
21
-1350.0
31
0.0
0
TEXT
8
09-文字
10
12500.0
20
-600.0
30
0.0
40
250.0
1
禹合制所 YUHE DESIGN
50
0.0
7
STANDARD
0
TEXT
8
09-文字
10
12500.0
20
-1150.0
30
0.0
40
210.0
1
合雄凰璽 B1／7F  現況平面圖
50
0.0
7
STANDARD
0
TEXT
8
09-文字
10
12500.0
20
-1675.0
30
0.0
40
150.0
1
比例 1:50  單位 mm  2026/08/15 現場丈量
50
0.0
7
STANDARD
0
TEXT
8
10-註記
10
-1700.0
20
11650.0
30
0.0
40
250.0
1
[ 推估底圖．非丈量成果．不可用於施工或估價 ]
50
0.0
7
STANDARD
0
TEXT
8
09-文字
10
-1700.0
20
-1500.0
30
0.0
40
170.0
1
室內軸線面積（含牆.含陽台）134.20 m2 = 40.60 坪　／　扣牆淨地坪 37.49 坪
50
0.0
7
STANDARD
0
TEXT
8
09-文字
10
-1700.0
20
-1800.0
30
0.0
40
150.0
1
權狀 58 坪／需求表載明室內實坪約 40 坪．估價以實坪為準
50
0.0
7
STANDARD
0
ENDSEC
0
EOF
