  0
SECTION
  2
HEADER
  9
$ACADVER
  1
AC1024
  9
$ACADMAINTVER
 70
6
  9
$DWGCODEPAGE
  3
ANSI_1252
  9
$LASTSAVEDBY
  1
ezdxf
  9
$INSBASE
 10
0.0
 20
0.0
 30
0.0
  9
$EXTMIN
 10
1e+20
 20
1e+20
 30
1e+20
  9
$EXTMAX
 10
-1e+20
 20
-1e+20
 30
-1e+20
  9
$LIMMIN
 10
0.0
 20
0.0
  9
$LIMMAX
 10
420.0
 20
297.0
  9
$ORTHOMODE
 70
0
  9
$REGENMODE
 70
1
  9
$FILLMODE
 70
1
  9
$QTEXTMODE
 70
0
  9
$MIRRTEXT
 70
1
  9
$LTSCALE
 40
1.0
  9
$ATTMODE
 70
1
  9
$TEXTSIZE
 40
2.5
  9
$TRACEWID
 40
1.0
  9
$TEXTSTYLE
  7
OpenSans
  9
$CLAYER
  8
0
  9
$CELTYPE
  6
ByLayer
  9
$CECOLOR
 62
256
  9
$CELTSCALE
 40
1.0
  9
$DISPSILH
 70
0
  9
$DIMSCALE
 40
1.0
  9
$DIMASZ
 40
0.175
  9
$DIMEXO
 40
0.125
  9
$DIMDLI
 40
3.75
  9
$DIMRND
 40
0.0
  9
$DIMDLE
 40
0.0
  9
$DIMEXE
 40
0.375
  9
$DIMTP
 40
0.0
  9
$DIMTM
 40
0.0
  9
$DIMTXT
 40
0.25
  9
$DIMCEN
 40
2.5
  9
$DIMTSZ
 40
0.0
  9
$DIMTOL
 70
0
  9
$DIMLIM
 70
0
  9
$DIMTIH
 70
0
  9
$DIMTOH
 70
0
  9
$DIMSE1
 70
0
  9
$DIMSE2
 70
0
  9
$DIMTAD
 70
1
  9
$DIMZIN
 70
12
  9
$DIMBLK
  1
ARCHTICK
  9
$DIMASO
 70
1
  9
$DIMSHO
 70
1
  9
$DIMPOST
  1

  9
$DIMAPOST
  1

  9
$DIMALT
 70
0
  9
$DIMALTD
 70
3
  9
$DIMALTF
 40
0.03937007874
  9
$DIMLFAC
 40
100.0
  9
$DIMTOFL
 70
1
  9
$DIMTVP
 40
0.0
  9
$DIMTIX
 70
0
  9
$DIMSOXD
 70
0
  9
$DIMSAH
 70
0
  9
$DIMBLK1
  1

  9
$DIMBLK2
  1

  9
$DIMSTYLE
  2
EZDXF
  9
$DIMCLRD
 70
0
  9
$DIMCLRE
 70
0
  9
$DIMCLRT
 70
0
  9
$DIMTFAC
 40
0.5
  9
$DIMGAP
 40
0.1
  9
$DIMJUST
 70
0
  9
$DIMSD1
 70
0
  9
$DIMSD2
 70
0
  9
$DIMTOLJ
 70
0
  9
$DIMTZIN
 70
8
  9
$DIMALTZ
 70
0
  9
$DIMALTTZ
 70
0
  9
$DIMUPT
 70
1
  9
$DIMDEC
 70
2
  9
$DIMTDEC
 70
2
  9
$DIMALTU
 70
2
  9
$DIMALTTD
 70
3
  9
$DIMTXSTY
  7
OpenSansCondensed-Light
  9
$DIMAUNIT
 70
0
  9
$DIMADEC
 70
2
  9
$DIMALTRND
 40
0.0
  9
$DIMAZIN
 70
3
  9
$DIMDSEP
 70
46
  9
$DIMATFIT
 70
3
  9
$DIMFRAC
 70
0
  9
$DIMLDRBLK
  1

  9
$DIMLUNIT
 70
2
  9
$DIMLWD
 70
-2
  9
$DIMLWE
 70
-2
  9
$DIMTMOVE
 70
2
  9
$DIMFXL
 40
1.0
  9
$DIMFXLON
 70
0
  9
$DIMJOGANG
 40
0.785398163397
  9
$DIMTFILL
 70
0
  9
$DIMTFILLCLR
 70
0
  9
$DIMARCSYM
 70
0
  9
$DIMLTYPE
  6

  9
$DIMLTEX1
  6

  9
$DIMLTEX2
  6

  9
$DIMTXTDIRECTION
 70
0
  9
$LUNITS
 70
2
  9
$LUPREC
 70
4
  9
$SKETCHINC
 40
1.0
  9
$FILLETRAD
 40
10.0
  9
$AUNITS
 70
0
  9
$AUPREC
 70
2
  9
$MENU
  1
.
  9
$ELEVATION
 40
0.0
  9
$PELEVATION
 40
0.0
  9
$THICKNESS
 40
0.0
  9
$LIMCHECK
 70
0
  9
$CHAMFERA
 40
0.0
  9
$CHAMFERB
 40
0.0
  9
$CHAMFERC
 40
0.0
  9
$CHAMFERD
 40
0.0
  9
$SKPOLY
 70
0
  9
$TDCREATE
 40
2461275.431412037
  9
$TDUCREATE
 40
2458532.153996898
  9
$TDUPDATE
 40
2461275.431412037
  9
$TDUUPDATE
 40
2458532.1544311
  9
$TDINDWG
 40
0.0
  9
$TDUSRTIMER
 40
0.0
  9
$USRTIMER
 70
1
  9
$ANGBASE
 50
0.0
  9
$ANGDIR
 70
0
  9
$PDMODE
 70
0
  9
$PDSIZE
 40
0.0
  9
$PLINEWID
 40
0.0
  9
$SPLFRAME
 70
0
  9
$SPLINETYPE
 70
6
  9
$SPLINESEGS
 70
8
  9
$HANDSEED
  5
197
  9
$SURFTAB1
 70
6
  9
$SURFTAB2
 70
6
  9
$SURFTYPE
 70
6
  9
$SURFU
 70
6
  9
$SURFV
 70
6
  9
$UCSBASE
  2

  9
$UCSNAME
  2

  9
$UCSORG
 10
0.0
 20
0.0
 30
0.0
  9
$UCSXDIR
 10
1.0
 20
0.0
 30
0.0
  9
$UCSYDIR
 10
0.0
 20
1.0
 30
0.0
  9
$UCSORTHOREF
  2

  9
$UCSORTHOVIEW
 70
0
  9
$UCSORGTOP
 10
0.0
 20
0.0
 30
0.0
  9
$UCSORGBOTTOM
 10
0.0
 20
0.0
 30
0.0
  9
$UCSORGLEFT
 10
0.0
 20
0.0
 30
0.0
  9
$UCSORGRIGHT
 10
0.0
 20
0.0
 30
0.0
  9
$UCSORGFRONT
 10
0.0
 20
0.0
 30
0.0
  9
$UCSORGBACK
 10
0.0
 20
0.0
 30
0.0
  9
$PUCSBASE
  2

  9
$PUCSNAME
  2

  9
$PUCSORG
 10
0.0
 20
0.0
 30
0.0
  9
$PUCSXDIR
 10
1.0
 20
0.0
 30
0.0
  9
$PUCSYDIR
 10
0.0
 20
1.0
 30
0.0
  9
$PUCSORTHOREF
  2

  9
$PUCSORTHOVIEW
 70
0
  9
$PUCSORGTOP
 10
0.0
 20
0.0
 30
0.0
  9
$PUCSORGBOTTOM
 10
0.0
 20
0.0
 30
0.0
  9
$PUCSORGLEFT
 10
0.0
 20
0.0
 30
0.0
  9
$PUCSORGRIGHT
 10
0.0
 20
0.0
 30
0.0
  9
$PUCSORGFRONT
 10
0.0
 20
0.0
 30
0.0
  9
$PUCSORGBACK
 10
0.0
 20
0.0
 30
0.0
  9
$USERI1
 70
0
  9
$USERI2
 70
0
  9
$USERI3
 70
0
  9
$USERI4
 70
0
  9
$USERI5
 70
0
  9
$USERR1
 40
0.0
  9
$USERR2
 40
0.0
  9
$USERR3
 40
0.0
  9
$USERR4
 40
0.0
  9
$USERR5
 40
0.0
  9
$WORLDVIEW
 70
1
  9
$SHADEDGE
 70
3
  9
$SHADEDIF
 70
70
  9
$TILEMODE
 70
1
  9
$MAXACTVP
 70
64
  9
$PINSBASE
 10
0.0
 20
0.0
 30
0.0
  9
$PLIMCHECK
 70
0
  9
$PEXTMIN
 10
1e+20
 20
1e+20
 30
1e+20
  9
$PEXTMAX
 10
-1e+20
 20
-1e+20
 30
-1e+20
  9
$PLIMMIN
 10
0.0
 20
0.0
  9
$PLIMMAX
 10
420.0
 20
297.0
  9
$UNITMODE
 70
0
  9
$VISRETAIN
 70
1
  9
$PLINEGEN
 70
0
  9
$PSLTSCALE
 70
1
  9
$TREEDEPTH
 70
3020
  9
$CMLSTYLE
  2
Standard
  9
$CMLJUST
 70
0
  9
$CMLSCALE
 40
20.0
  9
$PROXYGRAPHICS
 70
1
  9
$MEASUREMENT
 70
1
  9
$CELWEIGHT
370
-1
  9
$ENDCAPS
280
0
  9
$JOINSTYLE
280
0
  9
$LWDISPLAY
290
0
  9
$INSUNITS
 70
6
  9
$HYPERLINKBASE
  1

  9
$STYLESHEET
  1

  9
$XEDIT
290
1
  9
$CEPSNTYPE
380
0
  9
$PSTYLEMODE
290
1
  9
$FINGERPRINTGUID
  2
{EC99D1E8-BD69-48CE-BA0A-552CD45BD5AC}
  9
$VERSIONGUID
  2
{04B4D5D3-D6A4-4AF4-AB57-913DA738F45B}
  9
$EXTNAMES
290
1
  9
$PSVPSCALE
 40
0.0
  9
$OLESTARTUP
290
0
  9
$SORTENTS
280
127
  9
$INDEXCTL
280
0
  9
$HIDETEXT
280
1
  9
$XCLIPFRAME
280
1
  9
$HALOGAP
280
0
  9
$OBSCOLOR
 70
257
  9
$OBSLTYPE
280
0
  9
$INTERSECTIONDISPLAY
280
0
  9
$INTERSECTIONCOLOR
 70
257
  9
$DIMASSOC
280
2
  9
$PROJECTNAME
  1

  9
$CAMERADISPLAY
290
0
  9
$LENSLENGTH
 40
50.0
  9
$CAMERAHEIGHT
 40
0.0
  9
$STEPSPERSEC
 40
24.0
  9
$STEPSIZE
 40
100.0
  9
$3DDWFPREC
 40
2.0
  9
$PSOLWIDTH
 40
0.005
  9
$PSOLHEIGHT
 40
0.08
  9
$LOFTANG1
 40
1.570796326795
  9
$LOFTANG2
 40
1.570796326795
  9
$LOFTMAG1
 40
0.0
  9
$LOFTMAG2
 40
0.0
  9
$LOFTPARAM
 70
7
  9
$LOFTNORMALS
280
1
  9
$LATITUDE
 40
37.795
  9
$LONGITUDE
 40
-122.394
  9
$NORTHDIRECTION
 40
0.0
  9
$TIMEZONE
 70
-8000
  9
$LIGHTGLYPHDISPLAY
280
1
  9
$TILEMODELIGHTSYNCH
280
1
  9
$CMATERIAL
347
20
  9
$SOLIDHIST
280
0
  9
$SHOWHIST
280
1
  9
$DWFFRAME
280
2
  9
$DGNFRAME
280
2
  9
$REALWORLDSCALE
290
1
  9
$INTERFERECOLOR
 62
256
  9
$CSHADOW
280
0
  9
$SHADOWPLANELOCATION
 40
0.0
  0
ENDSEC
  0
SECTION
  2
CLASSES
  0
CLASS
  1
ACDBDICTIONARYWDFLT
  2
AcDbDictionaryWithDefault
  3
ObjectDBX Classes
 90
0
 91
0
280
0
281
0
  0
CLASS
  1
SUN
  2
AcDbSun
  3
SCENEOE
 90
1153
 91
0
280
0
281
0
  0
CLASS
  1
VISUALSTYLE
  2
AcDbVisualStyle
  3
ObjectDBX Classes
 90
4095
 91
0
280
0
281
0
  0
CLASS
  1
MATERIAL
  2
AcDbMaterial
  3
ObjectDBX Classes
 90
1153
 91
0
280
0
281
0
  0
CLASS
  1
SCALE
  2
AcDbScale
  3
ObjectDBX Classes
 90
1153
 91
0
280
0
281
0
  0
CLASS
  1
TABLESTYLE
  2
AcDbTableStyle
  3
ObjectDBX Classes
 90
4095
 91
0
280
0
281
0
  0
CLASS
  1
MLEADERSTYLE
  2
AcDbMLeaderStyle
  3
ACDB_MLEADERSTYLE_CLASS
 90
4095
 91
0
280
0
281
0
  0
CLASS
  1
DICTIONARYVAR
  2
AcDbDictionaryVar
  3
ObjectDBX Classes
 90
0
 91
0
280
0
281
0
  0
CLASS
  1
CELLSTYLEMAP
  2
AcDbCellStyleMap
  3
ObjectDBX Classes
 90
1152
 91
0
280
0
281
0
  0
CLASS
  1
MENTALRAYRENDERSETTINGS
  2
AcDbMentalRayRenderSettings
  3
SCENEOE
 90
1024
 91
0
280
0
281
0
  0
CLASS
  1
ACDBDETAILVIEWSTYLE
  2
AcDbDetailViewStyle
  3
ObjectDBX Classes
 90
1025
 91
0
280
0
281
0
  0
CLASS
  1
ACDBSECTIONVIEWSTYLE
  2
AcDbSectionViewStyle
  3
ObjectDBX Classes
 90
1025
 91
0
280
0
281
0
  0
CLASS
  1
RASTERVARIABLES
  2
AcDbRasterVariables
  3
ISM
 90
0
 91
0
280
0
281
0
  0
CLASS
  1
LAYOUT
  2
AcDbLayout
  3
ObjectDBX Classes
 90
0
 91
0
280
0
281
0
  0
CLASS
  1
ACDBPLACEHOLDER
  2
AcDbPlaceHolder
  3
ObjectDBX Classes
 90
0
 91
0
280
0
281
0
  0
ENDSEC
  0
SECTION
  2
TABLES
  0
TABLE
  2
VPORT
  5
8
330
0
100
AcDbSymbolTable
 70
1
  0
VPORT
  5
23
330
8
100
AcDbSymbolTableRecord
100
AcDbViewportTableRecord
  2
*Active
 70
0
 10
0.0
 20
0.0
 11
1.0
 21
1.0
 12
0.0
 22
0.0
 13
0.0
 23
0.0
 14
0.5
 24
0.5
 15
0.5
 25
0.5
 16
0.0
 26
0.0
 36
1.0
 17
0.0
 27
0.0
 37
0.0
 40
1000.0
 41
1.34
 42
50.0
 43
0.0
 44
0.0
 50
0.0
 51
0.0
 71
0
 72
1000
 73
1
 74
3
 75
0
 76
0
 77
0
 78
0
281
0
 65
0
146
0.0
  0
ENDTAB
  0
TABLE
  2
LTYPE
  5
2
330
0
100
AcDbSymbolTable
 70
21
  0
LTYPE
  5
24
330
2
100
AcDbSymbolTableRecord
100
AcDbLinetypeTableRecord
  2
ByBlock
 70
0
  3

 72
65
 73
0
 40
0.0
  0
LTYPE
  5
25
330
2
100
AcDbSymbolTableRecord
100
AcDbLinetypeTableRecord
  2
ByLayer
 70
0
  3

 72
65
 73
0
 40
0.0
  0
LTYPE
  5
26
330
2
100
AcDbSymbolTableRecord
100
AcDbLinetypeTableRecord
  2
Continuous
 70
0
  3

 72
65
 73
0
 40
0.0
  0
LTYPE
  5
2F
330
2
100
AcDbSymbolTableRecord
100
AcDbLinetypeTableRecord
  2
CENTER
 70
0
  3
Center ____ _ ____ _ ____ _ ____ _ ____ _ ____
 72
65
 73
4
 40
5.08
 49
3.175
 74
0
 49
-0.635
 74
0
 49
0.635
 74
0
 49
-0.635
 74
0
  0
LTYPE
  5
30
330
2
100
AcDbSymbolTableRecord
100
AcDbLinetypeTableRecord
  2
CENTERX2
 70
0
  3
Center (2x) ________  __  ________  __  ________
 72
65
 73
4
 40
8.89
 49
6.35
 74
0
 49
-0.635
 74
0
 49
1.27
 74
0
 49
-0.635
 74
0
  0
LTYPE
  5
31
330
2
100
AcDbSymbolTableRecord
100
AcDbLinetypeTableRecord
  2
CENTER2
 70
0
  3
Center (.5x) ____ _ ____ _ ____ _ ____ _ ____
 72
65
 73
4
 40
2.54
 49
1.587
 74
0
 49
-0.318
 74
0
 49
0.318
 74
0
 49
-0.318
 74
0
  0
LTYPE
  5
32
330
2
100
AcDbSymbolTableRecord
100
AcDbLinetypeTableRecord
  2
DASHED
 70
0
  3
Dashed __ __ __ __ __ __ __ __ __ __ __ __ __ _
 72
65
 73
2
 40
1.524
 49
1.27
 74
0
 49
-0.254
 74
0
  0
LTYPE
  5
33
330
2
100
AcDbSymbolTableRecord
100
AcDbLinetypeTableRecord
  2
DASHEDX2
 70
0
  3
Dashed (2x) ____  ____  ____  ____  ____  ____
 72
65
 73
2
 40
3.048
 49
2.54
 74
0
 49
-0.508
 74
0
  0
LTYPE
  5
34
330
2
100
AcDbSymbolTableRecord
100
AcDbLinetypeTableRecord
  2
DASHED2
 70
0
  3
Dashed (.5x) _ _ _ _ _ _ _ _ _ _ _ _ _ _
 72
65
 73
2
 40
0.762
 49
0.635
 74
0
 49
-0.127
 74
0
  0
LTYPE
  5
35
330
2
100
AcDbSymbolTableRecord
100
AcDbLinetypeTableRecord
  2
PHANTOM
 70
0
  3
Phantom ______  __  __  ______  __  __  ______
 72
65
 73
6
 40
6.35
 49
3.175
 74
0
 49
-0.635
 74
0
 49
0.635
 74
0
 49
-0.635
 74
0
 49
0.635
 74
0
 49
-0.635
 74
0
  0
LTYPE
  5
36
330
2
100
AcDbSymbolTableRecord
100
AcDbLinetypeTableRecord
  2
PHANTOMX2
 70
0
  3
Phantom (2x)____________    ____    ____    ____________
 72
65
 73
6
 40
10.795
 49
6.35
 74
0
 49
-0.635
 74
0
 49
1.27
 74
0
 49
-0.635
 74
0
 49
1.27
 74
0
 49
-0.635
 74
0
  0
LTYPE
  5
37
330
2
100
AcDbSymbolTableRecord
100
AcDbLinetypeTableRecord
  2
PHANTOM2
 70
0
  3
Phantom (.5x) ___ _ _ ___ _ _ ___ _ _ ___ _ _ ___
 72
65
 73
6
 40
3.175
 49
1.587
 74
0
 49
-0.318
 74
0
 49
0.318
 74
0
 49
-0.318
 74
0
 49
0.318
 74
0
 49
-0.318
 74
0
  0
LTYPE
  5
38
330
2
100
AcDbSymbolTableRecord
100
AcDbLinetypeTableRecord
  2
DASHDOT
 70
0
  3
Dash dot __ . __ . __ . __ . __ . __ . __ . __
 72
65
 73
4
 40
3.556
 49
2.54
 74
0
 49
-0.508
 74
0
 49
0.0
 74
0
 49
-0.508
 74
0
  0
LTYPE
  5
39
330
2
100
AcDbSymbolTableRecord
100
AcDbLinetypeTableRecord
  2
DASHDOTX2
 70
0
  3
Dash dot (2x) ____  .  ____  .  ____  .  ____
 72
65
 73
4
 40
6.096
 49
5.08
 74
0
 49
-0.508
 74
0
 49
0.0
 74
0
 49
-0.508
 74
0
  0
LTYPE
  5
3A
330
2
100
AcDbSymbolTableRecord
100
AcDbLinetypeTableRecord
  2
DASHDOT2
 70
0
  3
Dash dot (.5x) _ . _ . _ . _ . _ . _ . _ . _
 72
65
 73
4
 40
1.778
 49
1.27
 74
0
 49
-0.254
 74
0
 49
0.0
 74
0
 49
-0.254
 74
0
  0
LTYPE
  5
3B
330
2
100
AcDbSymbolTableRecord
100
AcDbLinetypeTableRecord
  2
DOT
 70
0
  3
Dot .  .  .  .  .  .  .  .  .  .  .  .  .  .  .  .
 72
65
 73
2
 40
0.508
 49
0.0
 74
0
 49
-0.508
 74
0
  0
LTYPE
  5
3C
330
2
100
AcDbSymbolTableRecord
100
AcDbLinetypeTableRecord
  2
DOTX2
 70
0
  3
Dot (2x) .    .    .    .    .    .    .    . 
 72
65
 73
2
 40
1.016
 49
0.0
 74
0
 49
-1.016
 74
0
  0
LTYPE
  5
3D
330
2
100
AcDbSymbolTableRecord
100
AcDbLinetypeTableRecord
  2
DOT2
 70
0
  3
Dot (.5) . . . . . . . . . . . . . . . . . . . 
 72
65
 73
2
 40
0.254
 49
0.0
 74
0
 49
-0.254
 74
0
  0
LTYPE
  5
3E
330
2
100
AcDbSymbolTableRecord
100
AcDbLinetypeTableRecord
  2
DIVIDE
 70
0
  3
Divide __ . . __ . . __ . . __ . . __ . . __
 72
65
 73
6
 40
4.064
 49
2.54
 74
0
 49
-0.508
 74
0
 49
0.0
 74
0
 49
-0.508
 74
0
 49
0.0
 74
0
 49
-0.508
 74
0
  0
LTYPE
  5
3F
330
2
100
AcDbSymbolTableRecord
100
AcDbLinetypeTableRecord
  2
DIVIDEX2
 70
0
  3
Divide (2x) ____  . .  ____  . .  ____  . .  ____
 72
65
 73
6
 40
6.604
 49
5.08
 74
0
 49
-0.508
 74
0
 49
0.0
 74
0
 49
-0.508
 74
0
 49
0.0
 74
0
 49
-0.508
 74
0
  0
LTYPE
  5
40
330
2
100
AcDbSymbolTableRecord
100
AcDbLinetypeTableRecord
  2
DIVIDE2
 70
0
  3
Divide(.5x) _ . _ . _ . _ . _ . _ . _ . _
 72
65
 73
6
 40
2.032
 49
1.27
 74
0
 49
-0.254
 74
0
 49
0.0
 74
0
 49
-0.254
 74
0
 49
0.0
 74
0
 49
-0.254
 74
0
  0
ENDTAB
  0
TABLE
  2
LAYER
  5
1
330
0
100
AcDbSymbolTable
 70
10
  0
LAYER
  5
27
330
1
100
AcDbSymbolTableRecord
100
AcDbLayerTableRecord
  2
0
 70
0
 62
7
  6
Continuous
370
-3
390
13
347
21
  0
LAYER
  5
28
330
1
100
AcDbSymbolTableRecord
100
AcDbLayerTableRecord
  2
Defpoints
 70
0
 62
7
  6
Continuous
290
0
370
-3
390
13
347
21
  0
LAYER
  5
8A
330
1
100
AcDbSymbolTableRecord
100
AcDbLayerTableRecord
  2
現況-結構牆
 70
0
 62
7
  6
Continuous
370
-3
390
13
347
21
  0
LAYER
  5
8B
330
1
100
AcDbSymbolTableRecord
100
AcDbLayerTableRecord
  2
現況-窗
 70
0
 62
4
  6
Continuous
370
-3
390
13
347
21
  0
LAYER
  5
8C
330
1
100
AcDbSymbolTableRecord
100
AcDbLayerTableRecord
  2
現況-門
 70
0
 62
3
  6
Continuous
370
-3
390
13
347
21
  0
LAYER
  5
8D
330
1
100
AcDbSymbolTableRecord
100
AcDbLayerTableRecord
  2
待確認拆除
 70
0
 62
6
  6
Continuous
370
-3
390
13
347
21
  0
LAYER
  5
8E
330
1
100
AcDbSymbolTableRecord
100
AcDbLayerTableRecord
  2
提案-隔間
 70
0
 62
1
  6
Continuous
370
-3
390
13
347
21
  0
LAYER
  5
8F
330
1
100
AcDbSymbolTableRecord
100
AcDbLayerTableRecord
  2
提案-家具
 70
0
 62
8
  6
Continuous
370
-3
390
13
347
21
  0
LAYER
  5
90
330
1
100
AcDbSymbolTableRecord
100
AcDbLayerTableRecord
  2
提案-文字
 70
0
 62
5
  6
Continuous
370
-3
390
13
347
21
  0
LAYER
  5
91
330
1
100
AcDbSymbolTableRecord
100
AcDbLayerTableRecord
  2
提案-開口
 70
0
 62
3
  6
Continuous
370
-3
390
13
347
21
  0
ENDTAB
  0
TABLE
  2
STYLE
  5
5
330
0
100
AcDbSymbolTable
 70
26
  0
STYLE
  5
29
330
5
100
AcDbSymbolTableRecord
100
AcDbTextStyleTableRecord
  2
Standard
 70
0
 40
0.0
 41
1.0
 50
0.0
 71
0
 42
2.5
  3
txt
  4

  0
STYLE
  5
41
330
5
100
AcDbSymbolTableRecord
100
AcDbTextStyleTableRecord
  2
OpenSans-Light
 70
0
 40
0.0
 41
1.0
 50
0.0
 71
0
 42
2.5
  3
OpenSans-Light.ttf
  4

  0
STYLE
  5
42
330
5
100
AcDbSymbolTableRecord
100
AcDbTextStyleTableRecord
  2
OpenSans-Light-Italic
 70
0
 40
0.0
 41
1.0
 50
0.0
 71
0
 42
2.5
  3
OpenSans-LightItalic.ttf
  4

  0
STYLE
  5
43
330
5
100
AcDbSymbolTableRecord
100
AcDbTextStyleTableRecord
  2
OpenSans
 70
0
 40
0.0
 41
1.0
 50
0.0
 71
0
 42
2.5
  3
OpenSans-Regular.ttf
  4

  0
STYLE
  5
44
330
5
100
AcDbSymbolTableRecord
100
AcDbTextStyleTableRecord
  2
OpenSans-Italic
 70
0
 40
0.0
 41
1.0
 50
0.0
 71
0
 42
2.5
  3
OpenSans-Italic.ttf
  4

  0
STYLE
  5
45
330
5
100
AcDbSymbolTableRecord
100
AcDbTextStyleTableRecord
  2
OpenSans-SemiBold
 70
0
 40
0.0
 41
1.0
 50
0.0
 71
0
 42
2.5
  3
OpenSans-SemiBold.ttf
  4

  0
STYLE
  5
46
330
5
100
AcDbSymbolTableRecord
100
AcDbTextStyleTableRecord
  2
OpenSans-SemiBoldItalic
 70
0
 40
0.0
 41
1.0
 50
0.0
 71
0
 42
2.5
  3
OpenSans-SemiBoldItalic.ttf
  4

  0
STYLE
  5
47
330
5
100
AcDbSymbolTableRecord
100
AcDbTextStyleTableRecord
  2
OpenSans-Bold
 70
0
 40
0.0
 41
1.0
 50
0.0
 71
0
 42
2.5
  3
OpenSans-Bold.ttf
  4

  0
STYLE
  5
48
330
5
100
AcDbSymbolTableRecord
100
AcDbTextStyleTableRecord
  2
OpenSans-BoldItalic
 70
0
 40
0.0
 41
1.0
 50
0.0
 71
0
 42
2.5
  3
OpenSans-BoldItalic.ttf
  4

  0
STYLE
  5
49
330
5
100
AcDbSymbolTableRecord
100
AcDbTextStyleTableRecord
  2
OpenSans-ExtraBold
 70
0
 40
0.0
 41
1.0
 50
0.0
 71
0
 42
2.5
  3
OpenSans-ExtraBold.ttf
  4

  0
STYLE
  5
4A
330
5
100
AcDbSymbolTableRecord
100
AcDbTextStyleTableRecord
  2
OpenSans-ExtraBoldItalic
 70
0
 40
0.0
 41
1.0
 50
0.0
 71
0
 42
2.5
  3
OpenSans-ExtraBoldItalic.ttf
  4

  0
STYLE
  5
4B
330
5
100
AcDbSymbolTableRecord
100
AcDbTextStyleTableRecord
  2
OpenSansCondensed-Bold
 70
0
 40
0.0
 41
1.0
 50
0.0
 71
0
 42
2.5
  3
OpenSansCondensed-Bold.ttf
  4

  0
STYLE
  5
4C
330
5
100
AcDbSymbolTableRecord
100
AcDbTextStyleTableRecord
  2
OpenSansCondensed-Light
 70
0
 40
0.0
 41
1.0
 50
0.0
 71
0
 42
2.5
  3
OpenSansCondensed-Light.ttf
  4

  0
STYLE
  5
4D
330
5
100
AcDbSymbolTableRecord
100
AcDbTextStyleTableRecord
  2
OpenSansCondensed-Italic
 70
0
 40
0.0
 41
1.0
 50
0.0
 71
0
 42
2.5
  3
OpenSansCondensed-LightItalic.ttf
  4

  0
STYLE
  5
4E
330
5
100
AcDbSymbolTableRecord
100
AcDbTextStyleTableRecord
  2
LiberationSans
 70
0
 40
0.0
 41
1.0
 50
0.0
 71
0
 42
2.5
  3
LiberationSans-Regular.ttf
  4

  0
STYLE
  5
4F
330
5
100
AcDbSymbolTableRecord
100
AcDbTextStyleTableRecord
  2
LiberationSans-Bold
 70
0
 40
0.0
 41
1.0
 50
0.0
 71
0
 42
2.5
  3
LiberationSans-Bold.ttf
  4

  0
STYLE
  5
50
330
5
100
AcDbSymbolTableRecord
100
AcDbTextStyleTableRecord
  2
LiberationSans-BoldItalic
 70
0
 40
0.0
 41
1.0
 50
0.0
 71
0
 42
2.5
  3
LiberationSans-BoldItalic.ttf
  4

  0
STYLE
  5
51
330
5
100
AcDbSymbolTableRecord
100
AcDbTextStyleTableRecord
  2
LiberationSans-Italic
 70
0
 40
0.0
 41
1.0
 50
0.0
 71
0
 42
2.5
  3
LiberationSans-Italic.ttf
  4

  0
STYLE
  5
52
330
5
100
AcDbSymbolTableRecord
100
AcDbTextStyleTableRecord
  2
LiberationSerif
 70
0
 40
0.0
 41
1.0
 50
0.0
 71
0
 42
2.5
  3
LiberationSerif-Regular.ttf
  4

  0
STYLE
  5
53
330
5
100
AcDbSymbolTableRecord
100
AcDbTextStyleTableRecord
  2
LiberationSerif-Bold
 70
0
 40
0.0
 41
1.0
 50
0.0
 71
0
 42
2.5
  3
LiberationSerif-Bold.ttf
  4

  0
STYLE
  5
54
330
5
100
AcDbSymbolTableRecord
100
AcDbTextStyleTableRecord
  2
LiberationSerif-BoldItalic
 70
0
 40
0.0
 41
1.0
 50
0.0
 71
0
 42
2.5
  3
LiberationSerif-BoldItalic.ttf
  4

  0
STYLE
  5
55
330
5
100
AcDbSymbolTableRecord
100
AcDbTextStyleTableRecord
  2
LiberationSerif-Italic
 70
0
 40
0.0
 41
1.0
 50
0.0
 71
0
 42
2.5
  3
LiberationSerif-Italic.ttf
  4

  0
STYLE
  5
56
330
5
100
AcDbSymbolTableRecord
100
AcDbTextStyleTableRecord
  2
LiberationMono
 70
0
 40
0.0
 41
1.0
 50
0.0
 71
0
 42
2.5
  3
LiberationMono-Regular.ttf
  4

  0
STYLE
  5
57
330
5
100
AcDbSymbolTableRecord
100
AcDbTextStyleTableRecord
  2
LiberationMono-Bold
 70
0
 40
0.0
 41
1.0
 50
0.0
 71
0
 42
2.5
  3
LiberationMono-Bold.ttf
  4

  0
STYLE
  5
58
330
5
100
AcDbSymbolTableRecord
100
AcDbTextStyleTableRecord
  2
LiberationMono-BoldItalic
 70
0
 40
0.0
 41
1.0
 50
0.0
 71
0
 42
2.5
  3
LiberationMono-BoldItalic.ttf
  4

  0
STYLE
  5
59
330
5
100
AcDbSymbolTableRecord
100
AcDbTextStyleTableRecord
  2
LiberationMono-Italic
 70
0
 40
0.0
 41
1.0
 50
0.0
 71
0
 42
2.5
  3
LiberationMono-Italic.ttf
  4

  0
ENDTAB
  0
TABLE
  2
VIEW
  5
7
330
0
100
AcDbSymbolTable
 70
0
  0
ENDTAB
  0
TABLE
  2
UCS
  5
6
330
0
100
AcDbSymbolTable
 70
0
  0
ENDTAB
  0
TABLE
  2
APPID
  5
3
330
0
100
AcDbSymbolTable
 70
3
  0
APPID
  5
2A
330
3
100
AcDbSymbolTableRecord
100
AcDbRegAppTableRecord
  2
ACAD
 70
0
  0
APPID
  5
194
330
3
100
AcDbSymbolTableRecord
100
AcDbRegAppTableRecord
  2
HATCHBACKGROUNDCOLOR
 70
0
  0
APPID
  5
195
330
3
100
AcDbSymbolTableRecord
100
AcDbRegAppTableRecord
  2
EZDXF
 70
0
  0
ENDTAB
  0
TABLE
  2
DIMSTYLE
  5
4
330
0
100
AcDbSymbolTable
 70
12
100
AcDbDimStyleTable
  0
DIMSTYLE
105
2B
330
4
100
AcDbSymbolTableRecord
100
AcDbDimStyleTableRecord
  2
Standard
 70
0
 40
1.0
 41
2.5
 42
0.625
 43
3.75
 44
1.25
 45
0.0
 46
0.0
 47
0.0
 48
0.0
 49
2.5
140
2.5
141
2.5
142
0.0
143
0.03937007874
144
1.0
145
0.0
146
1.0
147
0.625
148
0.0
 69
0
 70
0
 71
0
 72
0
 73
0
 74
0
 75
0
 76
0
 77
1
 78
8
 79
3
170
0
171
3
172
1
173
0
174
0
175
0
176
0
177
0
178
0
179
2
271
2
272
2
273
2
274
3
275
0
276
0
277
2
278
44
279
0
280
0
281
0
282
0
283
0
284
8
285
0
286
0
288
0
289
3
290
0
371
-2
372
-2
  0
DIMSTYLE
105
73
330
4
100
AcDbSymbolTableRecord
100
AcDbDimStyleTableRecord
  2
EZDXF
 70
0
 40
1.0
 41
0.175
 42
0.125
 43
3.75
 44
0.375
 45
0.0
 46
0.0
 47
0.0
 48
0.0
 49
2.5
140
0.25
141
2.5
142
0.0
143
0.03937007874
144
100.0
145
0.0
146
0.5
147
0.1
148
0.0
 69
0
 70
0
 71
0
 72
0
 73
0
 74
0
 75
0
 76
0
 77
1
 78
12
 79
3
170
0
171
3
172
1
173
0
174
0
175
0
176
0
177
0
178
0
179
2
271
2
272
2
273
2
274
3
275
0
276
0
277
2
278
46
279
2
280
0
281
0
282
0
283
0
284
8
285
0
286
0
288
1
289
3
290
0
340
4C
342
74
371
-2
372
-2
  0
DIMSTYLE
105
7C
330
4
100
AcDbSymbolTableRecord
100
AcDbDimStyleTableRecord
  2
EZ_M_100_H25_CM
 70
0
 40
1.0
 41
0.25
 42
0.125
 43
3.75
 44
0.375
 45
0.0
 46
0.0
 47
0.0
 48
0.0
 49
2.5
140
0.25
141
2.5
142
0.125
143
0.03937007874
144
100.0
145
0.0
146
0.5
147
0.1
148
0.0
 69
0
 70
0
 71
0
 72
0
 73
0
 74
0
 75
0
 76
0
 77
1
 78
12
 79
3
170
0
171
3
172
1
173
0
174
0
175
0
176
0
177
0
178
0
179
2
271
2
272
2
273
2
274
3
275
0
276
0
277
2
278
46
279
2
280
0
281
0
282
0
283
0
284
8
285
0
286
0
288
1
289
3
290
0
340
4C
371
-2
372
-2
  0
DIMSTYLE
105
7D
330
4
100
AcDbSymbolTableRecord
100
AcDbDimStyleTableRecord
  2
EZ_M_50_H25_CM
 70
0
 40
1.0
 41
0.125
 42
0.0625
 43
3.75
 44
0.1875
 45
0.0
 46
0.0
 47
0.0
 48
0.0
 49
2.5
140
0.125
141
2.5
142
0.0625
143
0.03937007874
144
100.0
145
0.0
146
0.5
147
0.05
148
0.0
 69
0
 70
0
 71
0
 72
0
 73
0
 74
0
 75
0
 76
0
 77
1
 78
12
 79
3
170
0
171
3
172
1
173
0
174
0
175
0
176
0
177
0
178
0
179
2
271
2
272
2
273
2
274
3
275
0
276
0
277
2
278
46
279
2
280
0
281
0
282
0
283
0
284
8
285
0
286
0
288
1
289
3
290
0
340
4C
371
-2
372
-2
  0
DIMSTYLE
105
7E
330
4
100
AcDbSymbolTableRecord
100
AcDbDimStyleTableRecord
  2
EZ_M_25_H25_CM
 70
0
 40
1.0
 41
0.0625
 42
0.03125
 43
3.75
 44
0.09375
 45
0.0
 46
0.0
 47
0.0
 48
0.0
 49
2.5
140
0.0625
141
2.5
142
0.03125
143
0.03937007874
144
100.0
145
0.0
146
0.5
147
0.025
148
0.0
 69
0
 70
0
 71
0
 72
0
 73
0
 74
0
 75
0
 76
0
 77
1
 78
12
 79
3
170
0
171
3
172
1
173
0
174
0
175
0
176
0
177
0
178
0
179
2
271
2
272
2
273
2
274
3
275
0
276
0
277
2
278
46
279
2
280
0
281
0
282
0
283
0
284
8
285
0
286
0
288
1
289
3
290
0
340
4C
371
-2
372
-2
  0
DIMSTYLE
105
7F
330
4
100
AcDbSymbolTableRecord
100
AcDbDimStyleTableRecord
  2
EZ_M_20_H25_CM
 70
0
 40
1.0
 41
0.05
 42
0.025
 43
3.75
 44
0.07500000000000001
 45
0.0
 46
0.0
 47
0.0
 48
0.0
 49
2.5
140
0.05
141
2.5
142
0.025
143
0.03937007874
144
100.0
145
0.0
146
0.5
147
0.020000000000000004
148
0.0
 69
0
 70
0
 71
0
 72
0
 73
0
 74
0
 75
0
 76
0
 77
1
 78
12
 79
3
170
0
171
3
172
1
173
0
174
0
175
0
176
0
177
0
178
0
179
2
271
2
272
2
273
2
274
3
275
0
276
0
277
2
278
46
279
2
280
0
281
0
282
0
283
0
284
8
285
0
286
0
288
1
289
3
290
0
340
4C
371
-2
372
-2
  0
DIMSTYLE
105
80
330
4
100
AcDbSymbolTableRecord
100
AcDbDimStyleTableRecord
  2
EZ_M_10_H25_CM
 70
0
 40
1.0
 41
0.025
 42
0.0125
 43
3.75
 44
0.037500000000000006
 45
0.0
 46
0.0
 47
0.0
 48
0.0
 49
2.5
140
0.025
141
2.5
142
0.0125
143
0.03937007874
144
100.0
145
0.0
146
0.5
147
0.010000000000000002
148
0.0
 69
0
 70
0
 71
0
 72
0
 73
0
 74
0
 75
0
 76
0
 77
1
 78
12
 79
3
170
0
171
3
172
1
173
0
174
0
175
0
176
0
177
0
178
0
179
2
271
2
272
2
273
2
274
3
275
0
276
0
277
2
278
46
279
2
280
0
281
0
282
0
283
0
284
8
285
0
286
0
288
1
289
3
290
0
340
4C
371
-2
372
-2
  0
DIMSTYLE
105
81
330
4
100
AcDbSymbolTableRecord
100
AcDbDimStyleTableRecord
  2
EZ_M_5_H25_CM
 70
0
 40
1.0
 41
0.0125
 42
0.00625
 43
3.75
 44
0.018750000000000003
 45
0.0
 46
0.0
 47
0.0
 48
0.0
 49
2.5
140
0.0125
141
2.5
142
0.00625
143
0.03937007874
144
100.0
145
0.0
146
0.5
147
0.005000000000000001
148
0.0
 69
0
 70
0
 71
0
 72
0
 73
0
 74
0
 75
0
 76
0
 77
1
 78
12
 79
3
170
0
171
3
172
1
173
0
174
0
175
0
176
0
177
0
178
0
179
2
271
2
272
2
273
2
274
3
275
0
276
0
277
2
278
46
279
2
280
0
281
0
282
0
283
0
284
8
285
0
286
0
288
1
289
3
290
0
340
4C
371
-2
372
-2
  0
DIMSTYLE
105
82
330
4
100
AcDbSymbolTableRecord
100
AcDbDimStyleTableRecord
  2
EZ_M_1_H25_CM
 70
0
 40
1.0
 41
0.0025
 42
0.00125
 43
3.75
 44
0.00375
 45
0.0
 46
0.0
 47
0.0
 48
0.0
 49
2.5
140
0.0025
141
2.5
142
0.00125
143
0.03937007874
144
100.0
145
0.0
146
0.5
147
0.001
148
0.0
 69
0
 70
0
 71
0
 72
0
 73
0
 74
0
 75
0
 76
0
 77
1
 78
12
 79
3
170
0
171
3
172
1
173
0
174
0
175
0
176
0
177
0
178
0
179
2
271
2
272
2
273
2
274
3
275
0
276
0
277
2
278
46
279
2
280
0
281
0
282
0
283
0
284
8
285
0
286
0
288
1
289
3
290
0
340
4C
371
-2
372
-2
  0
DIMSTYLE
105
83
330
4
100
AcDbSymbolTableRecord
100
AcDbDimStyleTableRecord
  2
EZ_RADIUS
 70
0
 40
1.0
 41
0.25
 42
0.125
 43
3.75
 44
0.375
 45
0.0
 46
0.0
 47
0.0
 48
0.0
 49
2.5
140
0.25
141
0.0
142
0.0
143
0.03937007874
144
100.0
145
0.0
146
0.5
147
0.1
148
0.0
 69
0
 70
0
 71
0
 72
0
 73
0
 74
0
 75
0
 76
0
 77
1
 78
12
 79
3
170
0
171
3
172
0
173
0
174
0
175
0
176
0
177
0
178
0
179
2
271
2
272
2
273
2
274
3
275
0
276
0
277
2
278
46
279
1
280
0
281
0
282
0
283
0
284
8
285
0
286
0
288
1
289
3
290
0
340
4C
342
84
371
-2
372
-2
  0
DIMSTYLE
105
88
330
4
100
AcDbSymbolTableRecord
100
AcDbDimStyleTableRecord
  2
EZ_RADIUS_INSIDE
 70
0
 40
1.0
 41
0.25
 42
0.125
 43
3.75
 44
0.375
 45
0.0
 46
0.0
 47
0.0
 48
0.0
 49
2.5
140
0.25
141
0.0
142
0.0
143
0.03937007874
144
100.0
145
0.0
146
0.5
147
0.1
148
0.0
 69
0
 70
0
 71
0
 72
0
 73
0
 74
0
 75
0
 76
0
 77
0
 78
12
 79
3
170
0
171
3
172
0
173
0
174
1
175
0
176
0
177
0
178
0
179
2
271
2
272
2
273
2
274
3
275
0
276
0
277
2
278
46
279
0
280
0
281
0
282
0
283
0
284
8
285
0
286
0
288
1
289
0
290
0
340
4C
342
84
371
-2
372
-2
  0
DIMSTYLE
105
89
330
4
100
AcDbSymbolTableRecord
100
AcDbDimStyleTableRecord
  2
EZ_CURVED
 70
0
 40
1.0
 41
0.25
 42
0.125
 43
3.75
 44
0.375
 45
0.0
 46
0.0
 47
0.0
 48
0.0
 49
2.5
140
0.25
141
2.5
142
0.0
143
0.03937007874
144
100.0
145
0.0
146
0.5
147
0.1
148
0.0
 69
0
 70
0
 71
0
 72
0
 73
0
 74
0
 75
0
 76
0
 77
1
 78
12
 79
2
 90
2
170
0
171
3
172
1
173
0
174
0
175
0
176
0
177
0
178
0
179
2
271
2
272
2
273
2
274
3
275
0
276
0
277
2
278
46
279
2
280
0
281
0
282
0
283
0
284
8
285
0
286
0
288
1
289
3
290
0
340
4C
371
-2
372
-2
  0
ENDTAB
  0
TABLE
  2
BLOCK_RECORD
  5
9
330
0
100
AcDbSymbolTable
 70
5
  0
BLOCK_RECORD
  5
17
330
9
100
AcDbSymbolTableRecord
100
AcDbBlockTableRecord
  2
*Model_Space
340
1A
 70
0
280
1
281
0
  0
BLOCK_RECORD
  5
1B
330
9
100
AcDbSymbolTableRecord
100
AcDbBlockTableRecord
  2
*Paper_Space
340
1E
 70
0
280
1
281
0
  0
BLOCK_RECORD
  5
74
330
9
100
AcDbSymbolTableRecord
100
AcDbBlockTableRecord
  2
_ARCHTICK
340
0
 70
0
280
1
281
0
  0
BLOCK_RECORD
  5
78
330
9
100
AcDbSymbolTableRecord
100
AcDbBlockTableRecord
  2
_CLOSEDFILLED
340
0
 70
0
280
1
281
0
  0
BLOCK_RECORD
  5
84
330
9
100
AcDbSymbolTableRecord
100
AcDbBlockTableRecord
  2
_CLOSEDBLANK
340
0
 70
0
280
1
281
0
  0
ENDTAB
  0
ENDSEC
  0
SECTION
  2
BLOCKS
  0
BLOCK
  5
18
330
17
100
AcDbEntity
  8
0
100
AcDbBlockBegin
  2
*Model_Space
 70
0
 10
0.0
 20
0.0
 30
0.0
  3
*Model_Space
  1

  0
ENDBLK
  5
19
330
17
100
AcDbEntity
  8
0
100
AcDbBlockEnd
  0
BLOCK
  5
1C
330
1B
100
AcDbEntity
  8
0
100
AcDbBlockBegin
  2
*Paper_Space
 70
0
 10
0.0
 20
0.0
 30
0.0
  3
*Paper_Space
  1

  0
ENDBLK
  5
1D
330
1B
100
AcDbEntity
  8
0
100
AcDbBlockEnd
  0
BLOCK
  5
75
330
74
100
AcDbEntity
  8
0
100
AcDbBlockBegin
  2
_ARCHTICK
 70
0
 10
0.0
 20
0.0
 30
0.0
  3
_ARCHTICK
  1

  0
LWPOLYLINE
  5
77
330
74
100
AcDbEntity
  8
0
  6
BYBLOCK
 62
0
100
AcDbPolyline
 90
2
 70
0
 43
0.15
 10
-0.5
 20
-0.5
 10
0.5
 20
0.5
  0
ENDBLK
  5
76
330
74
100
AcDbEntity
  8
0
100
AcDbBlockEnd
  0
BLOCK
  5
79
330
78
100
AcDbEntity
  8
0
100
AcDbBlockBegin
  2
_CLOSEDFILLED
 70
0
 10
0.0
 20
0.0
 30
0.0
  3
_CLOSEDFILLED
  1

  0
SOLID
  5
7B
330
78
100
AcDbEntity
  8
0
  6
BYBLOCK
 62
0
100
AcDbTrace
 10
-1.0
 20
0.16439898372402537
 30
0.0
 11
0.0
 21
0.0
 31
0.0
 12
-1.0
 22
-0.16439898372402537
 32
0.0
 13
-1.0
 23
-0.16439898372402537
 33
0.0
  0
ENDBLK
  5
7A
330
78
100
AcDbEntity
  8
0
100
AcDbBlockEnd
  0
BLOCK
  5
85
330
84
100
AcDbEntity
  8
0
100
AcDbBlockBegin
  2
_CLOSEDBLANK
 70
0
 10
0.0
 20
0.0
 30
0.0
  3
_CLOSEDBLANK
  1

  0
LWPOLYLINE
  5
87
330
84
100
AcDbEntity
  8
0
  6
BYBLOCK
 62
0
100
AcDbPolyline
 90
3
 70
1
 10
-1.0
 20
0.16439898372402537
 10
0.0
 20
0.0
 10
-1.0
 20
-0.16439898372402537
  0
ENDBLK
  5
86
330
84
100
AcDbEntity
  8
0
100
AcDbBlockEnd
  0
ENDSEC
  0
SECTION
  2
ENTITIES
  0
LWPOLYLINE
  5
92
330
17
100
AcDbEntity
  8
現況-結構牆
100
AcDbPolyline
 90
4
 70
1
 10
4951.428652296683
 20
3800.119151973184
 10
3938.561792384742
 20
3800.119151973184
 10
3938.561792384742
 20
3005.783949275985
 10
4951.428652296683
 20
3005.783949275985
  0
LWPOLYLINE
  5
93
330
17
100
AcDbEntity
  8
現況-結構牆
100
AcDbPolyline
 90
7
 70
0
 10
15849.42865229657
 20
8933.434601329052
 10
15999.42865229645
 20
8933.434601329052
 10
15999.42865229657
 20
8344.769804026251
 10
13516.29551220851
 20
8344.769804026251
 10
13516.29551220851
 20
8494.769804026251
 10
15849.42865229657
 20
8494.769804026251
 10
15849.42865229657
 20
8933.434601329052
  0
LWPOLYLINE
  5
94
330
17
100
AcDbEntity
  8
現況-結構牆
100
AcDbPolyline
 90
4
 70
1
 10
12503.42865229657
 20
8494.769804026251
 10
13516.29551220851
 20
8494.769804026251
 10
13516.29551220851
 20
7700.434601329052
 10
12503.42865229657
 20
7700.434601329052
  0
LWPOLYLINE
  5
95
330
17
100
AcDbEntity
  8
現況-結構牆
100
AcDbPolyline
 90
4
 70
1
 10
13083.4286522966
 20
7700.434601329045
 10
13233.42865229657
 20
7700.434601329045
 10
13233.42865229657
 20
3756.434601329052
 10
13083.4286522966
 20
3756.434601329052
  0
LWPOLYLINE
  5
96
330
17
100
AcDbEntity
  8
待確認拆除
100
AcDbPolyline
 90
11
 70
0
 10
9320.428652296538
 20
6450.434601329074
 10
10886.42865229654
 20
6450.434601329074
 10
10886.42865229657
 20
3550.434601329067
 10
11621.42865229657
 20
3550.434601329067
 10
11621.42865229657
 20
3400.434601329067
 10
10257.42865229654
 20
3400.434601329067
 10
10257.42865229654
 20
3550.434601329067
 10
10757.42865229654
 20
3550.434601329067
 10
10757.42865229654
 20
6335.434601329074
 10
9320.428652296538
 20
6335.434601329074
 10
9320.428652296538
 20
6450.434601329074
  0
LWPOLYLINE
  5
97
330
17
100
AcDbEntity
  8
待確認拆除
100
AcDbPolyline
 90
7
 70
0
 10
7672.428652296683
 20
6450.434601329074
 10
8420.428652296654
 20
6450.434601328318
 10
8420.428652296538
 20
6335.434601329067
 10
7787.428652296683
 20
6335.434601329067
 10
7787.428652296683
 20
3550.434601329067
 10
7672.428652296683
 20
3550.434601329067
 10
7672.428652299623
 20
6450.434601329074
  0
LWPOLYLINE
  5
98
330
17
100
AcDbEntity
  8
現況-結構牆
100
AcDbPolyline
 90
4
 70
1
 10
4951.428652296683
 20
3550.119151973184
 10
8827.428652296538
 20
3550.119151973184
 10
8827.428652296538
 20
3400.43460132906
 10
4951.428652296683
 20
3400.43460132906
  0
LWPOLYLINE
  5
99
330
17
100
AcDbEntity
  8
現況-結構牆
100
AcDbPolyline
 90
4
 70
1
 10
4496.428652296683
 20
4390.119151973184
 10
4346.428652296683
 20
4390.119151973184
 10
4346.428652296683
 20
3800.119151973184
 10
4496.428652296683
 20
3800.119151973184
  0
LWPOLYLINE
  5
9A
330
17
100
AcDbEntity
  8
現況-結構牆
100
AcDbPolyline
 90
11
 70
0
 10
4496.428652296683
 20
6763.119151973184
 10
4346.428652296683
 20
6763.119151973184
 10
4346.428652296683
 20
7529.434601329031
 10
4496.415777874903
 20
7529.434601329031
 10
4496.415777874903
 20
7484.434601329031
 10
7647.428652296654
 20
7484.434601329031
 10
7647.428652296654
 20
8370.434601329045
 10
7787.428652296654
 20
8370.434601329045
 10
7787.428652296654
 20
7350.434601329045
 10
4496.428652296683
 20
7350.119151973162
 10
4496.428652296683
 20
6763.119151973184
  0
LWPOLYLINE
  5
9B
330
17
100
AcDbEntity
  8
現況-結構牆
100
AcDbPolyline
 90
21
 70
0
 10
3938.561792384684
 20
8290.434601328994
 10
4757.428652296654
 20
8290.434601328943
 10
4757.428652296683
 20
8705.43460132903
 10
5622.428652296654
 20
8705.43460132903
 10
5622.428652296654
 20
9218.434601329016
 10
7787.428652296654
 20
9218.434601329016
 10
7787.428652296654
 20
9833.434601329016
 10
7974.428652296654
 20
9833.434601329016
 10
7974.428652296654
 20
9948.434601329016
 10
7689.428652296654
 20
9948.434601329016
 10
7689.428652296654
 20
9340.434601329016
 10
3017.428652296654
 20
9340.434601329016
 10
3017.428652296654
 20
11275.43460132905
 10
4013.42865229677
 20
11275.43460132905
 10
4013.42865229677
 20
11415.43460132905
 10
3017.428652296654
 20
11415.43460132905
 10
3017.428652296654
 20
13120.43460132905
 10
2867.428652296683
 20
13120.43460132905
 10
2867.428652296683
 20
9218.434601329009
 10
3938.561792384742
 20
9218.434601328943
 10
3938.561792384742
 20
8290.434601328994
  0
LWPOLYLINE
  5
9C
330
17
100
AcDbEntity
  8
現況-結構牆
100
AcDbPolyline
 90
4
 70
1
 10
8874.42865229677
 20
13936.43460132905
 10
8964.428652296654
 20
13936.43460132905
 10
8964.428652296654
 20
9833.434601329009
 10
8874.42865229677
 20
9833.434601329009
  0
LWPOLYLINE
  5
9D
330
17
100
AcDbEntity
  8
現況-結構牆
100
AcDbPolyline
 90
4
 70
1
 10
8379.42865229677
 20
13936.43460132905
 10
9220.428652296596
 20
13936.43460132905
 10
9220.428652296596
 20
14085.43460132905
 10
8379.42865229677
 20
14085.43460132905
  0
LWPOLYLINE
  5
9E
330
17
100
AcDbEntity
  8
現況-結構牆
100
AcDbPolyline
 90
4
 70
1
 10
12517.56179238463
 20
14736.43460132905
 10
13530.42865229657
 20
14736.43460132905
 10
13530.42865229657
 20
13936.43460132905
 10
12517.56179238463
 20
13936.43460132905
  0
LWPOLYLINE
  5
9F
330
17
100
AcDbEntity
  8
現況-結構牆
100
AcDbPolyline
 90
11
 70
0
 10
15903.42865229657
 20
14086.43460132905
 10
16888.42865229657
 20
14086.43460132905
 10
16888.42865229657
 20
10258.43460132905
 10
15999.42865229657
 20
10258.43460132905
 10
15999.42865229657
 20
10036.43460132905
 10
15849.42865229657
 20
10036.43460132905
 10
15849.42865229657
 20
10408.43460132905
 10
16738.42865229657
 20
10408.43460132905
 10
16738.42865229657
 20
13936.43460132905
 10
15903.42865229657
 20
13936.43460132905
 10
15903.42865229657
 20
14086.43460132905
  0
LWPOLYLINE
  5
A0
330
17
100
AcDbEntity
  8
現況-結構牆
100
AcDbPolyline
 90
13
 70
0
 10
5394.42865229677
 20
11840.43460132905
 10
4793.42865229677
 20
11840.43460132905
 10
4793.42865229677
 20
11275.43460132905
 10
5528.42865229677
 20
11275.43460132905
 10
5528.42865229677
 20
13936.43460132905
 10
5995.42865229677
 20
13936.43460132905
 10
5995.42865229677
 20
14085.43460132905
 10
4810.295512208595
 20
14085.43460132905
 10
4810.295512208595
 20
14735.43460132905
 10
3797.428652296654
 20
14735.43460132905
 10
3797.428652296654
 20
13935.43460132905
 10
5394.42865229677
 20
13935.43460132905
 10
5394.42865229677
 20
11840.43460132905
  0
LWPOLYLINE
  5
A1
330
17
100
AcDbEntity
  8
現況-結構牆
100
AcDbPolyline
 90
4
 70
1
 10
10257.42865229654
 20
3550.434601329067
 10
8827.428652296538
 20
3550.434601329067
 10
8827.428652296538
 20
3400.43460132906
 10
10257.42865229654
 20
3400.43460132906
  0
LWPOLYLINE
  5
A2
330
17
100
AcDbEntity
  8
現況-結構牆
100
AcDbPolyline
 90
2
 70
0
 10
13530.42865229657
 20
13936.43460132905
 10
15892.42865229657
 20
13936.43460132899
  0
LWPOLYLINE
  5
A3
330
17
100
AcDbEntity
  8
現況-結構牆
100
AcDbPolyline
 90
4
 70
0
 10
12517.56179238463
 20
14736.43460132905
 10
12517.56179238463
 20
16306.47425642542
 10
13530.42865229657
 20
16306.47425642541
 10
13530.42865229657
 20
14736.43460132905
  0
LWPOLYLINE
  5
A4
330
17
100
AcDbEntity
  8
現況-結構牆
100
AcDbPolyline
 90
4
 70
0
 10
12667.56179238463
 20
14736.43460132905
 10
12667.56179238463
 20
16156.47425642542
 10
13380.42865229657
 20
16156.47425642541
 10
13380.42865229657
 20
14736.43460132905
  0
LWPOLYLINE
  5
A5
330
17
100
AcDbEntity
  8
現況-結構牆
100
AcDbPolyline
 90
3
 70
0
 10
8876.007213331959
 20
14085.43460132905
 10
8876.007213331959
 20
15016.70210473776
 10
12517.56179238463
 20
15016.70210473776
  0
LWPOLYLINE
  5
A6
330
17
100
AcDbEntity
  8
現況-結構牆
100
AcDbPolyline
 90
3
 70
0
 10
8726.007213331959
 20
14085.43460132905
 10
8726.007213331959
 20
15166.70210473776
 10
12517.56179238463
 20
15166.70210473776
  0
LWPOLYLINE
  5
A7
330
17
100
AcDbEntity
  8
現況-結構牆
100
AcDbPolyline
 90
3
 70
0
 10
3017.428652296654
 20
13120.43460132905
 10
3017.428652296625
 20
13935.43460132905
 10
3797.428652296654
 20
13935.43460132905
  0
LWPOLYLINE
  5
A8
330
17
100
AcDbEntity
  8
現況-結構牆
100
AcDbPolyline
 90
3
 70
0
 10
2987.428652296654
 20
13120.43460132905
 10
2987.428652296625
 20
13965.43460132905
 10
3797.428652296654
 20
13965.43460132905
  0
LWPOLYLINE
  5
A9
330
17
100
AcDbEntity
  8
現況-結構牆
100
AcDbPolyline
 90
3
 70
0
 10
2957.428652296654
 20
13120.43460132905
 10
2957.428652296625
 20
13995.43460132905
 10
3797.428652296654
 20
13995.43460132905
  0
LWPOLYLINE
  5
AA
330
17
100
AcDbEntity
  8
現況-結構牆
100
AcDbPolyline
 90
3
 70
0
 10
2867.428652296654
 20
13120.43460132904
 10
2867.428652296625
 20
14085.43460132905
 10
3797.428652296654
 20
14085.43460132905
  0
LWPOLYLINE
  5
AB
330
17
100
AcDbEntity
  8
現況-結構牆
100
AcDbPolyline
 90
4
 70
1
 10
5995.42865229677
 20
13936.43460132905
 10
8379.42865229677
 20
13936.43460132905
 10
8379.42865229677
 20
14085.43460132905
 10
5995.42865229677
 20
14085.43460132905
  0
LWPOLYLINE
  5
AC
330
17
100
AcDbEntity
  8
現況-結構牆
100
AcDbPolyline
 90
4
 70
1
 10
9220.428652296596
 20
13936.43460132905
 10
12517.56179238463
 20
13936.43460132905
 10
12517.56179238463
 20
14086.43460132905
 10
9220.428652296596
 20
14086.43460132905
  0
LWPOLYLINE
  5
AD
330
17
100
AcDbEntity
  8
現況-結構牆
100
AcDbPolyline
 90
5
 70
0
 10
4346.428652296683
 20
7529.434601329031
 10
4347.995222340684
 20
8290.434601328972
 10
4497.995222340684
 20
8290.434601328972
 10
4497.995222340684
 20
7529.434601329031
 10
4346.429294587779
 20
7529.746610057166
  0
LWPOLYLINE
  5
AE
330
17
100
AcDbEntity
  8
現況-結構牆
100
AcDbPolyline
 90
4
 70
1
 10
4757.428652296683
 20
8705.43460132903
 10
5622.428652296654
 20
8705.43460132903
 10
5622.428652296654
 20
9340.434601329016
 10
4757.428652296683
 20
9340.434601329016
  0
LWPOLYLINE
  5
AF
330
17
100
AcDbEntity
  8
現況-結構牆
100
AcDbPolyline
 90
4
 70
1
 10
4757.428652296683
 20
8845.43460132903
 10
5482.428652296654
 20
8845.43460132903
 10
5482.428652296654
 20
9200.434601329016
 10
4757.428652296683
 20
9200.434601329016
  0
LWPOLYLINE
  5
B0
330
17
100
AcDbEntity
  8
現況-結構牆
100
AcDbPolyline
 90
2
 70
0
 10
4757.428652296683
 20
8845.43460132903
 10
5482.428652296654
 20
9200.434601329016
  0
LWPOLYLINE
  5
B1
330
17
100
AcDbEntity
  8
現況-結構牆
100
AcDbPolyline
 90
2
 70
0
 10
4757.428652296683
 20
9200.434601329016
 10
5482.428652296654
 20
8845.43460132903
  0
LWPOLYLINE
  5
B2
330
17
100
AcDbEntity
  8
現況-結構牆
100
AcDbPolyline
 90
4
 70
1
 10
4933.42865229677
 20
11700.43460132905
 10
5388.42865229677
 20
11700.43460132905
 10
5388.42865229677
 20
11415.43460132905
 10
4933.42865229677
 20
11415.43460132905
  0
LWPOLYLINE
  5
B3
330
17
100
AcDbEntity
  8
現況-結構牆
100
AcDbPolyline
 90
2
 70
0
 10
5388.42865229677
 20
11700.43460132905
 10
4933.42865229677
 20
11415.43460132905
  0
LWPOLYLINE
  5
B4
330
17
100
AcDbEntity
  8
現況-結構牆
100
AcDbPolyline
 90
2
 70
0
 10
4933.42865229677
 20
11700.43460132905
 10
5388.42865229677
 20
11415.43460132905
  0
LWPOLYLINE
  5
B5
330
17
100
AcDbEntity
  8
現況-結構牆
100
AcDbPolyline
 90
2
 70
0
 10
13380.42865229657
 20
16156.47425642541
 10
12667.56179238463
 20
14736.43460132905
  0
LWPOLYLINE
  5
B6
330
17
100
AcDbEntity
  8
現況-結構牆
100
AcDbPolyline
 90
2
 70
0
 10
12667.56179238463
 20
16156.47425642542
 10
13380.42865229657
 20
14736.43460132905
  0
LWPOLYLINE
  5
B7
330
17
100
AcDbEntity
  8
現況-結構牆
100
AcDbPolyline
 90
4
 70
1
 10
13516.29551220854
 20
3756.434601329052
 10
12503.4286522966
 20
3756.434601329052
 10
12503.4286522966
 20
2962.099398631854
 10
13516.29551220854
 20
2962.099398631854
  0
LWPOLYLINE
  5
B8
330
17
100
AcDbEntity
  8
現況-結構牆
100
AcDbPolyline
 90
7
 70
0
 10
11621.4286522966
 20
3400.434601329067
 10
8599.154834653073
 20
3400.43460132906
 10
8599.154834653073
 20
2100.43460132906
 10
13084.81999199075
 20
2100.43460132906
 10
13084.81999199075
 20
2962.099398631854
 10
12503.4286522966
 20
2962.099398631854
 10
12503.4286522966
 20
3395.699372724881
  0
LWPOLYLINE
  5
B9
330
17
100
AcDbEntity
  8
現況-結構牆
100
AcDbPolyline
 90
7
 70
0
 10
13084.81999199075
 20
2962.099398631854
 10
13234.81999199075
 20
2962.099398631854
 10
13234.81999199075
 20
2100.43460132906
 10
13234.81999199075
 20
1950.43460132906
 10
8599.154834653073
 20
1950.43460132906
 10
8449.154834653073
 20
1950.43460132906
 10
8449.154834653073
 20
3400.43460132906
  0
LWPOLYLINE
  5
BA
330
17
100
AcDbEntity
  8
現況-結構牆
100
AcDbPolyline
 90
3
 70
1
 10
16683.17898373736
 20
9465.559605031409
 10
17050.26673519786
 20
9677.497817153246
 10
17050.26673519786
 20
9253.621392909456
  0
LWPOLYLINE
  5
BB
330
17
100
AcDbEntity
  8
現況-結構牆
100
AcDbPolyline
 90
4
 70
1
 10
17150.26673519786
 20
9677.497817153246
 10
17200.26673519786
 20
9677.497817153246
 10
17200.26673519786
 20
9253.621392909456
 10
17150.26673519786
 20
9253.621392909456
  0
LINE
  5
BC
330
17
100
AcDbEntity
  8
現況-門
100
AcDbLine
 10
15999.42863714861
 20
8933.434612241825
 30
-5.376693912051565e-10
 11
15999.42863715163
 21
8933.434601329052
 31
4.135903062765138e-25
  0
LINE
  5
BD
330
17
100
AcDbEntity
  8
現況-門
100
AcDbLine
 10
15849.42866744139
 20
8933.434601329052
 30
-4.135903062765138e-25
 11
15999.42863715163
 21
8933.434601329052
 31
4.135903062765138e-25
  0
LINE
  5
BE
330
17
100
AcDbEntity
  8
現況-門
100
AcDbLine
 10
15849.42866744139
 20
10033.43460132907
 30
-6.203854594147708e-25
 11
15999.42863715163
 21
10033.43460132907
 31
-6.203854594147708e-25
  0
LINE
  5
BF
330
17
100
AcDbEntity
  8
現況-門
100
AcDbLine
 10
15849.42866744139
 20
10033.43460132907
 30
-6.203854594147708e-25
 11
15999.42863715163
 21
10033.43460132907
 31
-6.203854594147708e-25
  0
LINE
  5
C0
330
17
100
AcDbEntity
  8
現況-門
100
AcDbLine
 10
15849.42866744173
 20
10033.43460132907
 30
2.067951531382569e-25
 11
15849.42866744173
 21
10003.43460738732
 31
-6.66809690998633e-14
  0
LINE
  5
C1
330
17
100
AcDbEntity
  8
現況-門
100
AcDbLine
 10
15849.42866744173
 20
10003.43460738732
 30
-6.66809690998633e-14
 11
15999.42863715163
 21
10003.43460738732
 31
-6.66809690998633e-14
  0
LINE
  5
C2
330
17
100
AcDbEntity
  8
現況-門
100
AcDbLine
 10
15999.42863715163
 20
10003.43460738732
 30
-6.66809690998633e-14
 11
15999.42863715163
 21
10033.43460132907
 31
2.067951531382569e-25
  0
LINE
  5
C3
330
17
100
AcDbEntity
  8
現況-門
100
AcDbLine
 10
15849.42866744173
 20
8933.434601329052
 30
4.135903062765138e-25
 11
15849.42866744173
 21
8963.434595270799
 31
6.66809690996565e-14
  0
LINE
  5
C4
330
17
100
AcDbEntity
  8
現況-門
100
AcDbLine
 10
15849.42866744173
 20
8963.434595270799
 30
6.66809690996565e-14
 11
15999.42863715163
 21
8963.434595270799
 31
6.66809690996565e-14
  0
LINE
  5
C5
330
17
100
AcDbEntity
  8
現況-門
100
AcDbLine
 10
15999.42863715163
 20
8963.434595270799
 30
6.66809690996565e-14
 11
15999.42863715163
 21
8933.434601329052
 31
4.135903062765138e-25
  0
LINE
  5
C6
330
17
100
AcDbEntity
  8
現況-門
100
AcDbLine
 10
15849.42866744173
 20
10003.43460738732
 30
-6.66809690998633e-14
 11
14809.42887745043
 21
10003.43460738732
 31
-6.66809690998633e-14
  0
LINE
  5
C7
330
17
100
AcDbEntity
  8
現況-門
100
AcDbLine
 10
14809.42887745043
 20
10003.43460738732
 30
-6.66809690998633e-14
 11
14809.42887745043
 21
9973.434613445574
 31
-1.333619381999334e-13
  0
LINE
  5
C8
330
17
100
AcDbEntity
  8
現況-門
100
AcDbLine
 10
14809.42887745043
 20
9973.434613445574
 30
-1.333619381999334e-13
 11
15849.42866744173
 21
9973.434613445574
 31
-1.333619381999334e-13
  0
LINE
  5
C9
330
17
100
AcDbEntity
  8
現況-門
100
AcDbLine
 10
15849.42866744173
 20
9973.434613445574
 30
-1.333619381999334e-13
 11
15849.42866744173
 21
10003.43460738732
 31
-6.66809690998633e-14
  0
LINE
  5
CA
330
17
100
AcDbEntity
  8
現況-結構牆
100
AcDbLine
 10
12503.42865229657
 20
3409.27062739668
 30
0.0
 11
12503.42865229657
 21
3609.27062739668
 31
0.0
  0
LWPOLYLINE
  5
CB
330
17
100
AcDbEntity
  8
現況-門
100
AcDbPolyline
 90
4
 70
1
 10
11621.42865229657
 20
3549.27062739668
 10
11666.42865229657
 20
3549.27062739668
 10
11666.42865229657
 20
3449.27062739668
 10
11621.42865229657
 20
3449.27062739668
  0
LWPOLYLINE
  5
CC
330
17
100
AcDbEntity
  8
現況-門
100
AcDbPolyline
 90
4
 70
1
 10
12458.42865229657
 20
3549.27062739668
 10
12503.42865229657
 20
3549.27062739668
 10
12503.42865229657
 20
3449.27062739668
 10
12458.42865229657
 20
3449.27062739668
  0
LWPOLYLINE
  5
CD
330
17
100
AcDbEntity
  8
現況-門
100
AcDbPolyline
 90
4
 70
1
 10
12413.42865229657
 20
3494.27062739668
 10
12458.42865229657
 20
3494.27062739668
 10
12458.42865229657
 20
2696.27062739668
 10
12413.42865229657
 20
2696.27062739668
  0
ARC
  5
CE
330
17
100
AcDbEntity
  8
現況-門
100
AcDbCircle
 10
12405.96205071298
 20
3435.887425028905
 30
0.0
 40
739.6544852016731
100
AcDbArc
 50
178.9632417921186
 51
270.5783944164025
  0
LINE
  5
CF
330
17
100
AcDbEntity
  8
現況-門
100
AcDbLine
 10
12458.42865229657
 20
3549.27062739668
 30
0.0
 11
11666.42865229657
 21
3549.27062739668
 31
0.0
  0
LINE
  5
D0
330
17
100
AcDbEntity
  8
現況-門
100
AcDbLine
 10
11666.42865229657
 20
3449.27062739668
 30
0.0
 11
12413.42865229657
 21
3449.27062739668
 31
0.0
  0
LINE
  5
D1
330
17
100
AcDbEntity
  8
現況-結構牆
100
AcDbLine
 10
8379.42865229677
 20
13936.4346013291
 30
0.0
 11
5995.42865229677
 21
13936.43460132905
 31
0.0
  0
LWPOLYLINE
  5
D2
330
17
100
AcDbEntity
  8
現況-窗
100
AcDbPolyline
 90
4
 70
1
 10
5995.42865229677
 20
13976.25323093404
 10
6035.42865229677
 20
13976.25323093404
 10
6035.42865229677
 20
14056.25323093404
 10
5995.42865229677
 20
14056.25323093404
  0
LWPOLYLINE
  5
D3
330
17
100
AcDbEntity
  8
現況-窗
100
AcDbPolyline
 90
4
 70
1
 10
8339.42865229677
 20
13976.25323093406
 10
8379.42865229677
 20
13976.25323093406
 10
8379.42865229677
 20
14056.25323093406
 10
8339.42865229677
 20
14056.25323093406
  0
LINE
  5
D4
330
17
100
AcDbEntity
  8
現況-窗
100
AcDbLine
 10
6035.42865229677
 20
13976.25323093406
 30
0.0
 11
8339.42865229677
 21
13976.25323093406
 31
0.0
  0
LINE
  5
D5
330
17
100
AcDbEntity
  8
現況-窗
100
AcDbLine
 10
6035.42865229677
 20
14016.25323093406
 30
0.0
 11
8339.42865229677
 21
14016.25323093406
 31
0.0
  0
LINE
  5
D6
330
17
100
AcDbEntity
  8
現況-窗
100
AcDbLine
 10
6630.872931354676
 20
13996.25323093407
 30
0.0
 11
7755.345440609435
 21
13996.25323093407
 31
0.0
  0
LINE
  5
D7
330
17
100
AcDbEntity
  8
現況-窗
100
AcDbLine
 10
6035.42865229677
 20
14036.25323093406
 30
0.0
 11
6670.872931354676
 21
14036.25323093407
 31
0.0
  0
LINE
  5
D8
330
17
100
AcDbEntity
  8
現況-窗
100
AcDbLine
 10
8339.42865229677
 20
14056.25323093406
 30
0.0
 11
6035.42865229677
 21
14056.25323093406
 31
0.0
  0
LINE
  5
D9
330
17
100
AcDbEntity
  8
現況-窗
100
AcDbLine
 10
6650.872931354676
 20
14056.25323093407
 30
0.0
 11
6650.872931354676
 21
13976.25323093407
 31
0.0
  0
LINE
  5
DA
330
17
100
AcDbEntity
  8
現況-窗
100
AcDbLine
 10
6630.872931354646
 20
14016.25323093407
 30
0.0
 11
6630.872931354676
 21
13996.25323093407
 31
0.0
  0
LINE
  5
DB
330
17
100
AcDbEntity
  8
現況-窗
100
AcDbLine
 10
6670.872931354676
 20
14036.25323093407
 30
0.0
 11
6670.872931354646
 21
14016.25323093407
 31
0.0
  0
LINE
  5
DC
330
17
100
AcDbEntity
  8
現況-窗
100
AcDbLine
 10
8339.42865229677
 20
14036.25323093407
 30
0.0
 11
7715.345440609406
 21
14036.25323093409
 31
0.0
  0
LINE
  5
DD
330
17
100
AcDbEntity
  8
現況-窗
100
AcDbLine
 10
7735.345440609406
 20
14056.25323093409
 30
0.0
 11
7735.345440609406
 21
13976.25323093409
 31
0.0
  0
LINE
  5
DE
330
17
100
AcDbEntity
  8
現況-窗
100
AcDbLine
 10
7755.345440609435
 20
14016.25323093409
 30
0.0
 11
7755.345440609406
 21
13996.25323093409
 31
0.0
  0
LINE
  5
DF
330
17
100
AcDbEntity
  8
現況-窗
100
AcDbLine
 10
7715.345440609406
 20
14036.25323093409
 30
0.0
 11
7715.345440609435
 21
14016.25323093409
 31
0.0
  0
LWPOLYLINE
  5
E0
330
17
100
AcDbEntity
  8
現況-結構牆
100
AcDbPolyline
 90
4
 70
1
 10
13530.42865229657
 20
13936.43460132905
 10
15903.42865229657
 20
13936.43460132899
 10
15903.42865229657
 20
14085.43460132899
 10
13530.42865229657
 20
14085.43460132905
  0
LINE
  5
E1
330
17
100
AcDbEntity
  8
現況-結構牆
100
AcDbLine
 10
15903.42865229657
 20
13936.43460132905
 30
0.0
 11
13530.42865229657
 21
13936.43460132905
 31
0.0
  0
LWPOLYLINE
  5
E2
330
17
100
AcDbEntity
  8
現況-窗
100
AcDbPolyline
 90
4
 70
1
 10
13530.42865229657
 20
13976.25323093404
 10
13570.42865229657
 20
13976.25323093404
 10
13570.42865229657
 20
14056.25323093404
 10
13530.42865229657
 20
14056.25323093404
  0
LWPOLYLINE
  5
E3
330
17
100
AcDbEntity
  8
現況-窗
100
AcDbPolyline
 90
4
 70
1
 10
15863.42865229657
 20
13976.253230934
 10
15903.42865229657
 20
13976.253230934
 10
15903.42865229657
 20
14056.253230934
 10
15863.42865229657
 20
14056.253230934
  0
LINE
  5
E4
330
17
100
AcDbEntity
  8
現況-窗
100
AcDbLine
 10
13570.42865229657
 20
13976.25323093406
 30
0.0
 11
15863.42865229657
 21
13976.253230934
 31
0.0
  0
LINE
  5
E5
330
17
100
AcDbEntity
  8
現況-窗
100
AcDbLine
 10
13570.42865229657
 20
14016.25323093406
 30
0.0
 11
15863.42865229657
 21
14016.253230934
 31
0.0
  0
LINE
  5
E6
330
17
100
AcDbEntity
  8
現況-窗
100
AcDbLine
 10
14165.87293135447
 20
13996.25323093407
 30
0.0
 11
15290.34544060923
 21
13996.25323093407
 31
0.0
  0
LINE
  5
E7
330
17
100
AcDbEntity
  8
現況-窗
100
AcDbLine
 10
13570.42865229657
 20
14036.25323093406
 30
0.0
 11
14205.87293135447
 21
14036.25323093407
 31
0.0
  0
LINE
  5
E8
330
17
100
AcDbEntity
  8
現況-窗
100
AcDbLine
 10
15863.42865229657
 20
14056.253230934
 30
0.0
 11
13570.42865229657
 21
14056.25323093406
 31
0.0
  0
LINE
  5
E9
330
17
100
AcDbEntity
  8
現況-窗
100
AcDbLine
 10
14185.87293135447
 20
14056.25323093407
 30
0.0
 11
14185.87293135447
 21
13976.25323093407
 31
0.0
  0
LINE
  5
EA
330
17
100
AcDbEntity
  8
現況-窗
100
AcDbLine
 10
14165.87293135444
 20
14016.25323093407
 30
0.0
 11
14165.87293135447
 21
13996.25323093407
 31
0.0
  0
LINE
  5
EB
330
17
100
AcDbEntity
  8
現況-窗
100
AcDbLine
 10
14205.87293135447
 20
14036.25323093407
 30
0.0
 11
14205.87293135444
 21
14016.25323093407
 31
0.0
  0
LINE
  5
EC
330
17
100
AcDbEntity
  8
現況-窗
100
AcDbLine
 10
15863.42865229657
 20
14036.25323093401
 30
0.0
 11
15250.3454406092
 21
14036.25323093409
 31
0.0
  0
LINE
  5
ED
330
17
100
AcDbEntity
  8
現況-窗
100
AcDbLine
 10
15270.3454406092
 20
14056.25323093409
 30
0.0
 11
15270.3454406092
 21
13976.25323093409
 31
0.0
  0
LINE
  5
EE
330
17
100
AcDbEntity
  8
現況-窗
100
AcDbLine
 10
15290.34544060923
 20
14016.25323093409
 30
0.0
 11
15290.3454406092
 21
13996.25323093409
 31
0.0
  0
LINE
  5
EF
330
17
100
AcDbEntity
  8
現況-窗
100
AcDbLine
 10
15250.3454406092
 20
14036.25323093409
 30
0.0
 11
15250.34544060923
 21
14016.25323093409
 31
0.0
  0
LWPOLYLINE
  5
F0
330
17
100
AcDbEntity
  8
現況-結構牆
100
AcDbPolyline
 90
4
 70
1
 10
4347.428652296683
 20
6763.119151973184
 10
4347.428652296683
 20
4390.119151973184
 10
4496.428652296683
 20
4390.119151973184
 10
4496.428652296683
 20
6763.119151973184
  0
LINE
  5
F1
330
17
100
AcDbEntity
  8
現況-結構牆
100
AcDbLine
 10
4347.428652296741
 20
4390.119151973184
 30
0.0
 11
4347.428652296683
 21
6763.119151973184
 31
0.0
  0
LWPOLYLINE
  5
F2
330
17
100
AcDbEntity
  8
現況-窗
100
AcDbPolyline
 90
4
 70
1
 10
4387.24728190168
 20
6763.119151973184
 10
4387.24728190168
 20
6723.119151973184
 10
4467.24728190168
 20
6723.119151973184
 10
4467.24728190168
 20
6763.119151973184
  0
LWPOLYLINE
  5
F3
330
17
100
AcDbEntity
  8
現況-窗
100
AcDbPolyline
 90
4
 70
1
 10
4387.247281901709
 20
4430.119151973184
 10
4387.247281901709
 20
4390.119151973184
 10
4467.247281901709
 20
4390.119151973184
 10
4467.247281901709
 20
4430.119151973184
  0
LINE
  5
F4
330
17
100
AcDbEntity
  8
現況-窗
100
AcDbLine
 10
4387.247281901709
 20
6723.119151973184
 30
0.0
 11
4387.247281901709
 21
4430.119151973184
 31
0.0
  0
LINE
  5
F5
330
17
100
AcDbEntity
  8
現況-窗
100
AcDbLine
 10
4427.247281901709
 20
6723.119151973184
 30
0.0
 11
4427.247281901709
 21
4430.119151973184
 31
0.0
  0
LINE
  5
F6
330
17
100
AcDbEntity
  8
現況-窗
100
AcDbLine
 10
4407.247281901738
 20
6127.674872915279
 30
0.0
 11
4407.247281901738
 21
5003.202363660519
 31
0.0
  0
LINE
  5
F7
330
17
100
AcDbEntity
  8
現況-窗
100
AcDbLine
 10
4447.247281901709
 20
6723.119151973184
 30
0.0
 11
4447.247281901738
 21
6087.674872915279
 31
0.0
  0
LINE
  5
F8
330
17
100
AcDbEntity
  8
現況-窗
100
AcDbLine
 10
4467.247281901709
 20
4430.119151973184
 30
0.0
 11
4467.247281901709
 21
6723.119151973184
 31
0.0
  0
LINE
  5
F9
330
17
100
AcDbEntity
  8
現況-窗
100
AcDbLine
 10
4467.247281901738
 20
6107.674872915279
 30
0.0
 11
4387.247281901738
 21
6107.674872915279
 31
0.0
  0
LINE
  5
FA
330
17
100
AcDbEntity
  8
現況-窗
100
AcDbLine
 10
4427.247281901738
 20
6127.674872915308
 30
0.0
 11
4407.247281901738
 21
6127.674872915279
 31
0.0
  0
LINE
  5
FB
330
17
100
AcDbEntity
  8
現況-窗
100
AcDbLine
 10
4447.247281901738
 20
6087.674872915279
 30
0.0
 11
4427.247281901738
 21
6087.674872915308
 31
0.0
  0
LINE
  5
FC
330
17
100
AcDbEntity
  8
現況-窗
100
AcDbLine
 10
4447.247281901738
 20
4430.119151973184
 30
0.0
 11
4447.247281901738
 21
5043.202363660548
 31
0.0
  0
LINE
  5
FD
330
17
100
AcDbEntity
  8
現況-窗
100
AcDbLine
 10
4467.247281901738
 20
5023.202363660548
 30
0.0
 11
4387.247281901738
 21
5023.202363660548
 31
0.0
  0
LINE
  5
FE
330
17
100
AcDbEntity
  8
現況-窗
100
AcDbLine
 10
4427.247281901738
 20
5003.202363660519
 30
0.0
 11
4407.247281901738
 21
5003.202363660548
 31
0.0
  0
LINE
  5
FF
330
17
100
AcDbEntity
  8
現況-窗
100
AcDbLine
 10
4447.247281901738
 20
5043.202363660548
 30
0.0
 11
4427.247281901738
 21
5043.202363660519
 31
0.0
  0
LINE
  5
100
330
17
100
AcDbEntity
  8
現況-結構牆
100
AcDbLine
 10
8827.428652296538
 20
3420.434601329096
 30
0.0
 11
8827.428652296538
 21
3550.434601329096
 31
0.0
  0
LINE
  5
101
330
17
100
AcDbEntity
  8
現況-結構牆
100
AcDbLine
 10
10257.42865229654
 20
3420.434601329111
 30
0.0
 11
10257.42865229654
 21
3550.434601329096
 31
0.0
  0
LINE
  5
102
330
17
100
AcDbEntity
  8
現況-結構牆
100
AcDbLine
 10
8827.428652296567
 20
3550.434601329067
 30
0.0
 11
10257.42865229657
 21
3550.434601329081
 31
0.0
  0
LWPOLYLINE
  5
103
330
17
100
AcDbEntity
  8
現況-窗
100
AcDbPolyline
 90
4
 70
1
 10
10257.42865229657
 20
3520.434601329096
 10
10217.42865229657
 20
3520.434601329096
 10
10217.42865229657
 20
3440.434601329096
 10
10257.42865229657
 20
3440.434601329096
  0
LWPOLYLINE
  5
104
330
17
100
AcDbEntity
  8
現況-窗
100
AcDbPolyline
 90
4
 70
1
 10
8867.428652296567
 20
3520.434601329081
 10
8827.428652296567
 20
3520.434601329081
 10
8827.428652296567
 20
3440.434601329081
 10
8867.428652296567
 20
3440.434601329081
  0
LINE
  5
105
330
17
100
AcDbEntity
  8
現況-窗
100
AcDbLine
 10
10217.42865229657
 20
3520.434601329096
 30
0.0
 11
8867.428652296567
 21
3520.434601329081
 31
0.0
  0
LINE
  5
106
330
17
100
AcDbEntity
  8
現況-窗
100
AcDbLine
 10
8867.428652296567
 20
3440.434601329081
 30
0.0
 11
10217.42865229657
 21
3440.434601329096
 31
0.0
  0
LINE
  5
107
330
17
100
AcDbEntity
  8
現況-窗
100
AcDbLine
 10
10217.42865229657
 20
3480.434601329096
 30
0.0
 11
8867.428652296567
 21
3480.434601329081
 31
0.0
  0
LINE
  5
108
330
17
100
AcDbEntity
  8
現況-窗
100
AcDbLine
 10
9551.83993485782
 20
3500.434601329081
 30
0.0
 11
8867.428652296567
 21
3500.434601329081
 31
0.0
  0
LINE
  5
109
330
17
100
AcDbEntity
  8
現況-窗
100
AcDbLine
 10
10217.42865229657
 20
3460.434601329096
 30
0.0
 11
9511.83993485782
 21
3460.434601329081
 31
0.0
  0
LINE
  5
10A
330
17
100
AcDbEntity
  8
現況-窗
100
AcDbLine
 10
9531.83993485782
 20
3440.434601329081
 30
0.0
 11
9531.83993485782
 21
3520.434601329081
 31
0.0
  0
LINE
  5
10B
330
17
100
AcDbEntity
  8
現況-窗
100
AcDbLine
 10
9551.83993485785
 20
3480.434601329081
 30
0.0
 11
9551.83993485782
 21
3500.434601329081
 31
0.0
  0
LINE
  5
10C
330
17
100
AcDbEntity
  8
現況-窗
100
AcDbLine
 10
9511.83993485782
 20
3460.434601329081
 30
0.0
 11
9511.83993485785
 21
3480.434601329081
 31
0.0
  0
LWPOLYLINE
  5
10D
330
17
100
AcDbEntity
  8
現況-結構牆
100
AcDbPolyline
 90
4
 70
1
 10
9220.428652296596
 20
13936.43460132905
 10
12517.56179238463
 20
13936.43460132905
 10
12517.56179238463
 20
14085.43460132905
 10
9220.428652296596
 20
14085.43460132905
  0
LINE
  5
10E
330
17
100
AcDbEntity
  8
現況-結構牆
100
AcDbLine
 10
12517.56179238463
 20
13936.4346013291
 30
0.0
 11
9220.428652296596
 21
13936.43460132905
 31
0.0
  0
LWPOLYLINE
  5
10F
330
17
100
AcDbEntity
  8
現況-窗
100
AcDbPolyline
 90
4
 70
1
 10
9220.428652296596
 20
13976.25323093404
 10
9260.428652296596
 20
13976.25323093404
 10
9260.428652296596
 20
14056.25323093404
 10
9220.428652296596
 20
14056.25323093404
  0
LWPOLYLINE
  5
110
330
17
100
AcDbEntity
  8
現況-窗
100
AcDbPolyline
 90
4
 70
1
 10
12477.56179238463
 20
13976.25323093406
 10
12517.56179238463
 20
13976.25323093406
 10
12517.56179238463
 20
14056.25323093406
 10
12477.56179238463
 20
14056.25323093406
  0
LINE
  5
111
330
17
100
AcDbEntity
  8
現況-窗
100
AcDbLine
 10
9260.428652296596
 20
13976.25323093406
 30
0.0
 11
12477.56179238463
 21
13976.25323093406
 31
0.0
  0
LINE
  5
112
330
17
100
AcDbEntity
  8
現況-窗
100
AcDbLine
 10
9260.428652296596
 20
14016.25323093406
 30
0.0
 11
12477.56179238463
 21
14016.25323093406
 31
0.0
  0
LINE
  5
113
330
17
100
AcDbEntity
  8
現況-窗
100
AcDbLine
 10
10131.74995461088
 20
13996.25323093407
 30
0.0
 11
11532.11589195658
 21
13996.25323093407
 31
0.0
  0
LINE
  5
114
330
17
100
AcDbEntity
  8
現況-窗
100
AcDbLine
 10
9260.428652296596
 20
14036.25323093406
 30
0.0
 11
10171.74995461088
 21
14036.25323093407
 31
0.0
  0
LINE
  5
115
330
17
100
AcDbEntity
  8
現況-窗
100
AcDbLine
 10
12477.56179238463
 20
14056.25323093406
 30
0.0
 11
9260.428652296596
 21
14056.25323093406
 31
0.0
  0
LINE
  5
116
330
17
100
AcDbEntity
  8
現況-窗
100
AcDbLine
 10
10151.74995461088
 20
14056.25323093407
 30
0.0
 11
10151.74995461088
 21
13976.25323093407
 31
0.0
  0
LINE
  5
117
330
17
100
AcDbEntity
  8
現況-窗
100
AcDbLine
 10
10131.74995461086
 20
14016.25323093407
 30
0.0
 11
10131.74995461088
 21
13996.25323093407
 31
0.0
  0
LINE
  5
118
330
17
100
AcDbEntity
  8
現況-窗
100
AcDbLine
 10
10171.74995461088
 20
14036.25323093407
 30
0.0
 11
10171.74995461086
 21
14016.25323093407
 31
0.0
  0
LINE
  5
119
330
17
100
AcDbEntity
  8
現況-窗
100
AcDbLine
 10
12477.56179238463
 20
14036.25323093407
 30
0.0
 11
11492.11589195655
 21
14036.25323093409
 31
0.0
  0
LINE
  5
11A
330
17
100
AcDbEntity
  8
現況-窗
100
AcDbLine
 10
11512.11589195655
 20
14056.25323093409
 30
0.0
 11
11512.11589195655
 21
13976.25323093409
 31
0.0
  0
LINE
  5
11B
330
17
100
AcDbEntity
  8
現況-窗
100
AcDbLine
 10
11532.11589195658
 20
14016.25323093409
 30
0.0
 11
11532.11589195655
 21
13996.25323093409
 31
0.0
  0
LINE
  5
11C
330
17
100
AcDbEntity
  8
現況-窗
100
AcDbLine
 10
11492.11589195655
 20
14036.25323093409
 30
0.0
 11
11492.11589195658
 21
14016.25323093409
 31
0.0
  0
LWPOLYLINE
  5
11D
330
17
100
AcDbEntity
  8
現況-門
100
AcDbPolyline
 90
4
 70
1
 10
4793.42865229677
 20
11265.43460132905
 10
4753.42865229677
 20
11265.43460132905
 10
4753.42865229677
 20
11425.43460132905
 10
4793.42865229677
 20
11425.43460132905
  0
LWPOLYLINE
  5
11E
330
17
100
AcDbEntity
  8
現況-門
100
AcDbPolyline
 90
4
 70
1
 10
4053.42865229677
 20
11265.43460132905
 10
4013.42865229677
 20
11265.43460132905
 10
4013.42865229677
 20
11425.43460132905
 10
4053.42865229677
 20
11425.43460132905
  0
LWPOLYLINE
  5
11F
330
17
100
AcDbEntity
  8
現況-門
100
AcDbPolyline
 90
4
 70
1
 10
4053.42865229677
 20
11405.43460132905
 10
4093.42865229677
 20
11405.43460132905
 10
4093.42865229677
 20
12115.47417995661
 10
4053.42865229677
 20
12115.47417995661
  0
ARC
  5
120
330
17
100
AcDbEntity
  8
現況-門
100
AcDbCircle
 10
4040.463627630055
 20
11404.16102993044
 30
0.0
 40
713.2823362722936
100
AcDbArc
 50
1.709094101486623
 51
85.74156269684212
  0
LWPOLYLINE
  5
121
330
17
100
AcDbEntity
  8
現況-門
100
AcDbPolyline
 90
4
 70
1
 10
7797.428652296654
 20
8370.434601329045
 10
7797.428652296654
 20
8410.434601329045
 10
7637.428652296654
 20
8410.434601329045
 10
7637.428652296654
 20
8370.434601329045
  0
LWPOLYLINE
  5
122
330
17
100
AcDbEntity
  8
現況-門
100
AcDbPolyline
 90
4
 70
1
 10
7797.428652296654
 20
9178.434601329016
 10
7797.428652296654
 20
9218.434601329016
 10
7637.428652296654
 20
9218.434601329016
 10
7637.428652296654
 20
9178.434601329016
  0
LWPOLYLINE
  5
123
330
17
100
AcDbEntity
  8
現況-門
100
AcDbPolyline
 90
4
 70
1
 10
7657.428652296654
 20
9178.434601329016
 10
7657.428652296654
 20
9138.434601329016
 10
6923.402856549594
 20
9138.434601329016
 10
6923.402856549594
 20
9178.434601329016
  0
ARC
  5
124
330
17
100
AcDbEntity
  8
現況-門
100
AcDbCircle
 10
7721.083598279856
 20
9206.643678073462
 30
0.0
 40
800.591683617604
100
AcDbArc
 50
184.8874298773229
 51
264.0021352529415
  0
LINE
  5
125
330
17
100
AcDbEntity
  8
現況-結構牆
100
AcDbLine
 10
7787.428652296654
 20
8370.434601329016
 30
0.0
 11
7667.428652296654
 21
8370.434601329045
 31
0.0
  0
LWPOLYLINE
  5
126
330
17
100
AcDbEntity
  8
提案-隔間
100
AcDbPolyline
 90
4
 70
1
 10
5600.0
 20
10240.0
 10
7700.0
 20
10240.0
 10
7700.0
 20
10360.0
 10
5600.0
 20
10360.0
  0
LWPOLYLINE
  5
127
330
17
100
AcDbEntity
  8
提案-隔間
100
AcDbPolyline
 90
4
 70
1
 10
8600.0
 20
10240.0
 10
10300.0
 20
10240.0
 10
10300.0
 20
10360.0
 10
8600.0
 20
10360.0
  0
LWPOLYLINE
  5
128
330
17
100
AcDbEntity
  8
提案-隔間
100
AcDbPolyline
 90
4
 70
1
 10
11200.0
 20
10240.0
 10
13300.0
 20
10240.0
 10
13300.0
 20
10360.0
 10
11200.0
 20
10360.0
  0
LWPOLYLINE
  5
129
330
17
100
AcDbEntity
  8
提案-隔間
100
AcDbPolyline
 90
4
 70
1
 10
14200.0
 20
10240.0
 10
15700.0
 20
10240.0
 10
15700.0
 20
10360.0
 10
14200.0
 20
10360.0
  0
LWPOLYLINE
  5
12A
330
17
100
AcDbEntity
  8
提案-隔間
100
AcDbPolyline
 90
4
 70
1
 10
16500.0
 20
10240.0
 10
16850.0
 20
10240.0
 10
16850.0
 20
10360.0
 10
16500.0
 20
10360.0
  0
LWPOLYLINE
  5
12B
330
17
100
AcDbEntity
  8
提案-隔間
100
AcDbPolyline
 90
4
 70
1
 10
5540.0
 20
9200.0
 10
5540.0
 20
9400.0
 10
5660.0
 20
9400.0
 10
5660.0
 20
9200.0
  0
LWPOLYLINE
  5
12C
330
17
100
AcDbEntity
  8
提案-隔間
100
AcDbPolyline
 90
4
 70
1
 10
5540.0
 20
10300.0
 10
5540.0
 20
12300.0
 10
5660.0
 20
12300.0
 10
5660.0
 20
10300.0
  0
LWPOLYLINE
  5
12D
330
17
100
AcDbEntity
  8
提案-隔間
100
AcDbPolyline
 90
4
 70
1
 10
5540.0
 20
13100.0
 10
5540.0
 20
14060.0
 10
5660.0
 20
14060.0
 10
5660.0
 20
13100.0
  0
LWPOLYLINE
  5
12E
330
17
100
AcDbEntity
  8
提案-隔間
100
AcDbPolyline
 90
4
 70
1
 10
2950.0
 20
11340.0
 10
5600.0
 20
11340.0
 10
5600.0
 20
11460.0
 10
2950.0
 20
11460.0
  0
LWPOLYLINE
  5
12F
330
17
100
AcDbEntity
  8
提案-隔間
100
AcDbPolyline
 90
4
 70
1
 10
2950.0
 20
9140.0
 10
5600.0
 20
9140.0
 10
5600.0
 20
9260.0
 10
2950.0
 20
9260.0
  0
LWPOLYLINE
  5
130
330
17
100
AcDbEntity
  8
提案-隔間
100
AcDbPolyline
 90
4
 70
1
 10
7240.0
 20
10300.0
 10
7240.0
 20
11500.0
 10
7360.0
 20
11500.0
 10
7360.0
 20
10300.0
  0
LWPOLYLINE
  5
131
330
17
100
AcDbEntity
  8
提案-隔間
100
AcDbPolyline
 90
4
 70
1
 10
5600.0
 20
11440.0
 10
5800.0
 20
11440.0
 10
5800.0
 20
11560.0
 10
5600.0
 20
11560.0
  0
LWPOLYLINE
  5
132
330
17
100
AcDbEntity
  8
提案-隔間
100
AcDbPolyline
 90
4
 70
1
 10
6700.0
 20
11440.0
 10
7300.0
 20
11440.0
 10
7300.0
 20
11560.0
 10
6700.0
 20
11560.0
  0
LWPOLYLINE
  5
133
330
17
100
AcDbEntity
  8
提案-隔間
100
AcDbPolyline
 90
4
 70
1
 10
9260.0
 20
10300.0
 10
9260.0
 20
14060.0
 10
9440.0
 20
14060.0
 10
9440.0
 20
10300.0
  0
LWPOLYLINE
  5
134
330
17
100
AcDbEntity
  8
提案-隔間
100
AcDbPolyline
 90
4
 70
1
 10
12290.0
 20
10300.0
 10
12290.0
 20
14060.0
 10
12410.0
 20
14060.0
 10
12410.0
 20
10300.0
  0
LWPOLYLINE
  5
135
330
17
100
AcDbEntity
  8
提案-隔間
100
AcDbPolyline
 90
4
 70
1
 10
15290.0
 20
10300.0
 10
15290.0
 20
14060.0
 10
15410.0
 20
14060.0
 10
15410.0
 20
10300.0
  0
LWPOLYLINE
  5
136
330
17
100
AcDbEntity
  8
提案-隔間
100
AcDbPolyline
 90
4
 70
1
 10
5600.0
 20
8390.0
 10
5800.0
 20
8390.0
 10
5800.0
 20
8510.0
 10
5600.0
 20
8510.0
  0
LWPOLYLINE
  5
137
330
17
100
AcDbEntity
  8
提案-隔間
100
AcDbPolyline
 90
4
 70
1
 10
7400.0
 20
8390.0
 10
11000.0
 20
8390.0
 10
11000.0
 20
8510.0
 10
7400.0
 20
8510.0
  0
LWPOLYLINE
  5
138
330
17
100
AcDbEntity
  8
提案-隔間
100
AcDbPolyline
 90
4
 70
1
 10
12800.0
 20
8390.0
 10
15930.0
 20
8390.0
 10
15930.0
 20
8510.0
 10
12800.0
 20
8510.0
  0
LWPOLYLINE
  5
139
330
17
100
AcDbEntity
  8
提案-隔間
100
AcDbPolyline
 90
4
 70
1
 10
13040.0
 20
8450.0
 10
13040.0
 20
8600.0
 10
13160.0
 20
8600.0
 10
13160.0
 20
8450.0
  0
LWPOLYLINE
  5
13A
330
17
100
AcDbEntity
  8
提案-隔間
100
AcDbPolyline
 90
4
 70
1
 10
13040.0
 20
9700.0
 10
13040.0
 20
10300.0
 10
13160.0
 20
10300.0
 10
13160.0
 20
9700.0
  0
LINE
  5
13B
330
17
100
AcDbEntity
  8
提案-開口
100
AcDbLine
 10
5600.0
 20
12300.0
 30
0.0
 11
6400.0
 21
12300.0
 31
0.0
  0
ARC
  5
13C
330
17
100
AcDbEntity
  8
提案-開口
100
AcDbCircle
 10
5600.0
 20
12300.0
 30
0.0
 40
800.0
100
AcDbArc
 50
0.0
 51
90.0
  0
LINE
  5
13D
330
17
100
AcDbEntity
  8
提案-開口
100
AcDbLine
 10
5600.0
 20
9400.0
 30
0.0
 11
6500.0
 21
9400.0
 31
0.0
  0
ARC
  5
13E
330
17
100
AcDbEntity
  8
提案-開口
100
AcDbCircle
 10
5600.0
 20
9400.0
 30
0.0
 40
900.0
100
AcDbArc
 50
0.0
 51
90.0
  0
LINE
  5
13F
330
17
100
AcDbEntity
  8
提案-開口
100
AcDbLine
 10
5800.0
 20
11500.0
 30
0.0
 11
5800.0
 21
12400.0
 31
0.0
  0
ARC
  5
140
330
17
100
AcDbEntity
  8
提案-開口
100
AcDbCircle
 10
5800.0
 20
11500.0
 30
0.0
 40
900.0
100
AcDbArc
 50
0.0
 51
90.0
  0
LINE
  5
141
330
17
100
AcDbEntity
  8
提案-開口
100
AcDbLine
 10
7700.0
 20
10300.0
 30
0.0
 11
7700.0
 21
11200.0
 31
0.0
  0
ARC
  5
142
330
17
100
AcDbEntity
  8
提案-開口
100
AcDbCircle
 10
7700.0
 20
10300.0
 30
0.0
 40
900.0
100
AcDbArc
 50
0.0
 51
90.0
  0
LINE
  5
143
330
17
100
AcDbEntity
  8
提案-開口
100
AcDbLine
 10
10300.0
 20
10300.0
 30
0.0
 11
10300.0
 21
11200.0
 31
0.0
  0
ARC
  5
144
330
17
100
AcDbEntity
  8
提案-開口
100
AcDbCircle
 10
10300.0
 20
10300.0
 30
0.0
 40
900.0
100
AcDbArc
 50
0.0
 51
90.0
  0
LINE
  5
145
330
17
100
AcDbEntity
  8
提案-開口
100
AcDbLine
 10
13300.0
 20
10300.0
 30
0.0
 11
13300.0
 21
11200.0
 31
0.0
  0
ARC
  5
146
330
17
100
AcDbEntity
  8
提案-開口
100
AcDbCircle
 10
13300.0
 20
10300.0
 30
0.0
 40
900.0
100
AcDbArc
 50
0.0
 51
90.0
  0
LINE
  5
147
330
17
100
AcDbEntity
  8
提案-開口
100
AcDbLine
 10
15700.0
 20
10300.0
 30
0.0
 11
15700.0
 21
11100.0
 31
0.0
  0
ARC
  5
148
330
17
100
AcDbEntity
  8
提案-開口
100
AcDbCircle
 10
15700.0
 20
10300.0
 30
0.0
 40
800.0
100
AcDbArc
 50
0.0
 51
90.0
  0
LWPOLYLINE
  5
149
330
17
100
AcDbEntity
  8
提案-開口
100
AcDbPolyline
 90
2
 70
0
 10
5800.0
 20
8450.0
 10
7400.0
 20
8450.0
  0
LWPOLYLINE
  5
14A
330
17
100
AcDbEntity
  8
提案-開口
100
AcDbPolyline
 90
2
 70
0
 10
11000.0
 20
8450.0
 10
12800.0
 20
8450.0
  0
LWPOLYLINE
  5
14B
330
17
100
AcDbEntity
  8
提案-開口
100
AcDbPolyline
 90
2
 70
0
 10
13100.0
 20
8600.0
 10
13100.0
 20
9700.0
  0
LWPOLYLINE
  5
14C
330
17
100
AcDbEntity
  8
提案-家具
100
AcDbPolyline
 90
4
 70
1
 10
7300.0
 20
3520.0
 10
11500.0
 20
3520.0
 10
11500.0
 20
4120.0
 10
7300.0
 20
4120.0
  0
TEXT
  5
14D
330
17
100
AcDbEntity
  8
提案-文字
100
AcDbText
 10
9400.0
 20
3820.0
 30
0.0
 40
110.0
  1
廚具 ㄇ字
 72
1
 11
9400.0
 21
3820.0
 31
0.0
100
AcDbText
 73
2
  0
LWPOLYLINE
  5
14E
330
17
100
AcDbEntity
  8
提案-家具
100
AcDbPolyline
 90
4
 70
1
 10
7300.0
 20
4120.0
 10
7900.0
 20
4120.0
 10
7900.0
 20
5000.0
 10
7300.0
 20
5000.0
  0
LWPOLYLINE
  5
14F
330
17
100
AcDbEntity
  8
提案-家具
100
AcDbPolyline
 90
4
 70
1
 10
10900.0
 20
4120.0
 10
11500.0
 20
4120.0
 10
11500.0
 20
5000.0
 10
10900.0
 20
5000.0
  0
LWPOLYLINE
  5
150
330
17
100
AcDbEntity
  8
提案-家具
100
AcDbPolyline
 90
4
 70
1
 10
7300.0
 20
5200.0
 10
11500.0
 20
5200.0
 10
11500.0
 20
6200.0
 10
7300.0
 20
6200.0
  0
TEXT
  5
151
330
17
100
AcDbEntity
  8
提案-文字
100
AcDbText
 10
9400.0
 20
5700.0
 30
0.0
 40
110.0
  1
長吧台島 420×100
 72
1
 11
9400.0
 21
5700.0
 31
0.0
100
AcDbText
 73
2
  0
LWPOLYLINE
  5
152
330
17
100
AcDbEntity
  8
提案-家具
100
AcDbPolyline
 90
4
 70
1
 10
7800.0
 20
8050.0
 10
11000.0
 20
8050.0
 10
11000.0
 20
8450.0
 10
7800.0
 20
8450.0
  0
TEXT
  5
153
330
17
100
AcDbEntity
  8
提案-文字
100
AcDbText
 10
9400.0
 20
8250.0
 30
0.0
 40
110.0
  1
投影矮櫃 深40
 72
1
 11
9400.0
 21
8250.0
 31
0.0
100
AcDbText
 73
2
  0
LWPOLYLINE
  5
154
330
17
100
AcDbEntity
  8
提案-家具
100
AcDbPolyline
 90
4
 70
1
 10
7900.0
 20
8380.0
 10
10560.0
 20
8380.0
 10
10560.0
 20
8450.0
 10
7900.0
 20
8450.0
  0
TEXT
  5
155
330
17
100
AcDbEntity
  8
提案-文字
100
AcDbText
 10
9230.0
 20
8415.0
 30
0.0
 40
110.0
  1
電動幕 120吋
 72
1
 11
9230.0
 21
8415.0
 31
0.0
100
AcDbText
 73
2
  0
LWPOLYLINE
  5
156
330
17
100
AcDbEntity
  8
提案-家具
100
AcDbPolyline
 90
4
 70
1
 10
4700.0
 20
6500.0
 10
5600.0
 20
6500.0
 10
5600.0
 20
7400.0
 10
4700.0
 20
7400.0
  0
TEXT
  5
157
330
17
100
AcDbEntity
  8
提案-文字
100
AcDbText
 10
5150.0
 20
6950.0
 30
0.0
 40
110.0
  1
單椅
 72
1
 11
5150.0
 21
6950.0
 31
0.0
100
AcDbText
 73
2
  0
LWPOLYLINE
  5
158
330
17
100
AcDbEntity
  8
提案-家具
100
AcDbPolyline
 90
4
 70
1
 10
5850.0
 20
6500.0
 10
6750.0
 20
6500.0
 10
6750.0
 20
7400.0
 10
5850.0
 20
7400.0
  0
TEXT
  5
159
330
17
100
AcDbEntity
  8
提案-文字
100
AcDbText
 10
6300.0
 20
6950.0
 30
0.0
 40
110.0
  1
單椅
 72
1
 11
6300.0
 21
6950.0
 31
0.0
100
AcDbText
 73
2
  0
LWPOLYLINE
  5
15A
330
17
100
AcDbEntity
  8
提案-家具
100
AcDbPolyline
 90
4
 70
1
 10
4500.0
 20
4600.0
 10
6600.0
 20
4600.0
 10
6600.0
 20
5050.0
 10
4500.0
 20
5050.0
  0
TEXT
  5
15B
330
17
100
AcDbEntity
  8
提案-文字
100
AcDbText
 10
5550.0
 20
4825.0
 30
0.0
 40
110.0
  1
長凳
 72
1
 11
5550.0
 21
4825.0
 31
0.0
100
AcDbText
 73
2
  0
LWPOLYLINE
  5
15C
330
17
100
AcDbEntity
  8
提案-家具
100
AcDbPolyline
 90
4
 70
1
 10
12500.0
 20
4500.0
 10
13000.0
 20
4500.0
 10
13000.0
 20
8000.0
 10
12500.0
 20
8000.0
  0
TEXT
  5
15D
330
17
100
AcDbEntity
  8
提案-文字
100
AcDbText
 10
12750.0
 20
6250.0
 30
0.0
 40
110.0
  1
餐邊儲藏 深50
 72
1
 11
12750.0
 21
6250.0
 31
0.0
100
AcDbText
 73
2
  0
LWPOLYLINE
  5
15E
330
17
100
AcDbEntity
  8
提案-家具
100
AcDbPolyline
 90
4
 70
1
 10
6675.0
 20
12060.0
 10
8475.0
 20
12060.0
 10
8475.0
 20
14060.0
 10
6675.0
 20
14060.0
  0
TEXT
  5
15F
330
17
100
AcDbEntity
  8
提案-文字
100
AcDbText
 10
7575.0
 20
13060.0
 30
0.0
 40
110.0
  1
床 180×200
 72
1
 11
7575.0
 21
13060.0
 31
0.0
100
AcDbText
 73
2
  0
LWPOLYLINE
  5
160
330
17
100
AcDbEntity
  8
提案-家具
100
AcDbPolyline
 90
4
 70
1
 10
7420.0
 20
11600.0
 10
8920.0
 20
11600.0
 10
8920.0
 20
12100.0
 10
7420.0
 20
12100.0
  0
TEXT
  5
161
330
17
100
AcDbEntity
  8
提案-文字
100
AcDbText
 10
8170.0
 20
11850.0
 30
0.0
 40
110.0
  1
化妝桌
 72
1
 11
8170.0
 21
11850.0
 31
0.0
100
AcDbText
 73
2
  0
LWPOLYLINE
  5
162
330
17
100
AcDbEntity
  8
提案-家具
100
AcDbPolyline
 90
4
 70
1
 10
9500.0
 20
12060.0
 10
10550.0
 20
12060.0
 10
10550.0
 20
14060.0
 10
9500.0
 20
14060.0
  0
TEXT
  5
163
330
17
100
AcDbEntity
  8
提案-文字
100
AcDbText
 10
10025.0
 20
13060.0
 30
0.0
 40
110.0
  1
單人床
 72
1
 11
10025.0
 21
13060.0
 31
0.0
100
AcDbText
 73
2
  0
LWPOLYLINE
  5
164
330
17
100
AcDbEntity
  8
提案-家具
100
AcDbPolyline
 90
4
 70
1
 10
10750.0
 20
12060.0
 10
11800.0
 20
12060.0
 10
11800.0
 20
14060.0
 10
10750.0
 20
14060.0
  0
TEXT
  5
165
330
17
100
AcDbEntity
  8
提案-文字
100
AcDbText
 10
11275.0
 20
13060.0
 30
0.0
 40
110.0
  1
單人床
 72
1
 11
11275.0
 21
13060.0
 31
0.0
100
AcDbText
 73
2
  0
LWPOLYLINE
  5
166
330
17
100
AcDbEntity
  8
提案-家具
100
AcDbPolyline
 90
4
 70
1
 10
9470.0
 20
10420.0
 10
12230.0
 20
10420.0
 10
12230.0
 20
10920.0
 10
9470.0
 20
10920.0
  0
TEXT
  5
167
330
17
100
AcDbEntity
  8
提案-文字
100
AcDbText
 10
10850.0
 20
10670.0
 30
0.0
 40
110.0
  1
書桌／收納
 72
1
 11
10850.0
 21
10670.0
 31
0.0
100
AcDbText
 73
2
  0
LWPOLYLINE
  5
168
330
17
100
AcDbEntity
  8
提案-家具
100
AcDbPolyline
 90
4
 70
1
 10
12470.0
 20
10420.0
 10
15230.0
 20
10420.0
 10
15230.0
 20
10920.0
 10
12470.0
 20
10920.0
  0
TEXT
  5
169
330
17
100
AcDbEntity
  8
提案-文字
100
AcDbText
 10
13850.0
 20
10670.0
 30
0.0
 40
110.0
  1
收納櫃
 72
1
 11
13850.0
 21
10670.0
 31
0.0
100
AcDbText
 73
2
  0
LWPOLYLINE
  5
16A
330
17
100
AcDbEntity
  8
提案-家具
100
AcDbPolyline
 90
4
 70
1
 10
12800.0
 20
11600.0
 10
14900.0
 20
11600.0
 10
14900.0
 20
13600.0
 10
12800.0
 20
13600.0
  0
TEXT
  5
16B
330
17
100
AcDbEntity
  8
提案-文字
100
AcDbText
 10
13850.0
 20
12600.0
 30
0.0
 40
110.0
  1
遊戲地墊
 72
1
 11
13850.0
 21
12600.0
 31
0.0
100
AcDbText
 73
2
  0
LWPOLYLINE
  5
16C
330
17
100
AcDbEntity
  8
提案-家具
100
AcDbPolyline
 90
4
 70
1
 10
15470.0
 20
12160.0
 10
16730.0
 20
12160.0
 10
16730.0
 20
14060.0
 10
15470.0
 20
14060.0
  0
TEXT
  5
16D
330
17
100
AcDbEntity
  8
提案-文字
100
AcDbText
 10
16100.0
 20
13110.0
 30
0.0
 40
110.0
  1
床／儲藏
 72
1
 11
16100.0
 21
13110.0
 31
0.0
100
AcDbText
 73
2
  0
LWPOLYLINE
  5
16E
330
17
100
AcDbEntity
  8
提案-家具
100
AcDbPolyline
 90
4
 70
1
 10
13220.0
 20
9600.0
 10
15810.0
 20
9600.0
 10
15810.0
 20
10300.0
 10
13220.0
 20
10300.0
  0
TEXT
  5
16F
330
17
100
AcDbEntity
  8
提案-文字
100
AcDbText
 10
14515.0
 20
9950.0
 30
0.0
 40
110.0
  1
到頂櫃 深70
 72
1
 11
14515.0
 21
9950.0
 31
0.0
100
AcDbText
 73
2
  0
LWPOLYLINE
  5
170
330
17
100
AcDbEntity
  8
提案-家具
100
AcDbPolyline
 90
4
 70
1
 10
13100.0
 20
8450.0
 10
13220.0
 20
8450.0
 10
13220.0
 20
9400.0
 10
13100.0
 20
9400.0
  0
TEXT
  5
171
330
17
100
AcDbEntity
  8
提案-文字
100
AcDbText
 10
13160.0
 20
8925.0
 30
0.0
 40
110.0
  1
屏風
 72
1
 11
13160.0
 21
8925.0
 31
0.0
100
AcDbText
 73
2
  0
LWPOLYLINE
  5
172
330
17
100
AcDbEntity
  8
提案-家具
100
AcDbPolyline
 90
4
 70
1
 10
5720.0
 20
10420.0
 10
6320.0
 20
10420.0
 10
6320.0
 20
11380.0
 10
5720.0
 20
11380.0
  0
TEXT
  5
173
330
17
100
AcDbEntity
  8
提案-文字
100
AcDbText
 10
6020.0
 20
10900.0
 30
0.0
 40
110.0
  1
吊衣桿 深60
 72
1
 11
6020.0
 21
10900.0
 31
0.0
100
AcDbText
 73
2
  0
LWPOLYLINE
  5
174
330
17
100
AcDbEntity
  8
提案-家具
100
AcDbPolyline
 90
4
 70
1
 10
3070.0
 20
13160.0
 10
3970.0
 20
13160.0
 10
3970.0
 20
14060.0
 10
3070.0
 20
14060.0
  0
TEXT
  5
175
330
17
100
AcDbEntity
  8
提案-文字
100
AcDbText
 10
3520.0
 20
13610.0
 30
0.0
 40
110.0
  1
淋浴 90×90
 72
1
 11
3520.0
 21
13610.0
 31
0.0
100
AcDbText
 73
2
  0
LWPOLYLINE
  5
176
330
17
100
AcDbEntity
  8
提案-家具
100
AcDbPolyline
 90
4
 70
1
 10
4200.0
 20
13460.0
 10
5480.0
 20
13460.0
 10
5480.0
 20
14060.0
 10
4200.0
 20
14060.0
  0
TEXT
  5
177
330
17
100
AcDbEntity
  8
提案-文字
100
AcDbText
 10
4840.0
 20
13760.0
 30
0.0
 40
110.0
  1
浴櫃／面盆
 72
1
 11
4840.0
 21
13760.0
 31
0.0
100
AcDbText
 73
2
  0
LWPOLYLINE
  5
178
330
17
100
AcDbEntity
  8
提案-家具
100
AcDbPolyline
 90
4
 70
1
 10
3070.0
 20
11520.0
 10
3470.0
 20
11520.0
 10
3470.0
 20
12220.0
 10
3070.0
 20
12220.0
  0
TEXT
  5
179
330
17
100
AcDbEntity
  8
提案-文字
100
AcDbText
 10
3270.0
 20
11870.0
 30
0.0
 40
110.0
  1
馬桶
 72
1
 11
3270.0
 21
11870.0
 31
0.0
100
AcDbText
 73
2
  0
LWPOLYLINE
  5
17A
330
17
100
AcDbEntity
  8
提案-家具
100
AcDbPolyline
 90
4
 70
1
 10
3850.0
 20
9320.0
 10
5450.0
 20
9320.0
 10
5450.0
 20
10070.0
 10
3850.0
 20
10070.0
  0
TEXT
  5
17B
330
17
100
AcDbEntity
  8
提案-文字
100
AcDbText
 10
4650.0
 20
9695.0
 30
0.0
 40
110.0
  1
浴缸 160×75
 72
1
 11
4650.0
 21
9695.0
 31
0.0
100
AcDbText
 73
2
  0
LWPOLYLINE
  5
17C
330
17
100
AcDbEntity
  8
提案-家具
100
AcDbPolyline
 90
4
 70
1
 10
3070.0
 20
9320.0
 10
3470.0
 20
9320.0
 10
3470.0
 20
10020.0
 10
3070.0
 20
10020.0
  0
TEXT
  5
17D
330
17
100
AcDbEntity
  8
提案-文字
100
AcDbText
 10
3270.0
 20
9670.0
 30
0.0
 40
110.0
  1
馬桶
 72
1
 11
3270.0
 21
9670.0
 31
0.0
100
AcDbText
 73
2
  0
LWPOLYLINE
  5
17E
330
17
100
AcDbEntity
  8
提案-家具
100
AcDbPolyline
 90
4
 70
1
 10
3070.0
 20
10400.0
 10
3820.0
 20
10400.0
 10
3820.0
 20
10900.0
 10
3070.0
 20
10900.0
  0
TEXT
  5
17F
330
17
100
AcDbEntity
  8
提案-文字
100
AcDbText
 10
3445.0
 20
10650.0
 30
0.0
 40
110.0
  1
洗手台
 72
1
 11
3445.0
 21
10650.0
 31
0.0
100
AcDbText
 73
2
  0
TEXT
  5
180
330
17
100
AcDbEntity
  8
提案-文字
100
AcDbText
 10
4275.0
 20
12880.0
 30
0.0
 40
240.0
  1
主浴
 72
1
 11
4275.0
 21
12880.0
 31
0.0
100
AcDbText
 73
2
  0
TEXT
  5
181
330
17
100
AcDbEntity
  8
提案-文字
100
AcDbText
 10
4275.0
 20
12540.0
 30
0.0
 40
160.0
  1
2.13坪
 72
1
 11
4275.0
 21
12540.0
 31
0.0
100
AcDbText
 73
2
  0
TEXT
  5
182
330
17
100
AcDbEntity
  8
提案-文字
100
AcDbText
 10
4275.0
 20
10450.0
 30
0.0
 40
240.0
  1
客浴
 72
1
 11
4275.0
 21
10450.0
 31
0.0
100
AcDbText
 73
2
  0
TEXT
  5
183
330
17
100
AcDbEntity
  8
提案-文字
100
AcDbText
 10
4275.0
 20
10110.0
 30
0.0
 40
160.0
  1
1.76坪
 72
1
 11
4275.0
 21
10110.0
 31
0.0
100
AcDbText
 73
2
  0
TEXT
  5
184
330
17
100
AcDbEntity
  8
提案-文字
100
AcDbText
 10
6450.0
 20
11050.0
 30
0.0
 40
240.0
  1
更衣間
 72
1
 11
6450.0
 21
11050.0
 31
0.0
100
AcDbText
 73
2
  0
TEXT
  5
185
330
17
100
AcDbEntity
  8
提案-文字
100
AcDbText
 10
6450.0
 20
10710.0
 30
0.0
 40
160.0
  1
0.62坪
 72
1
 11
6450.0
 21
10710.0
 31
0.0
100
AcDbText
 73
2
  0
TEXT
  5
186
330
17
100
AcDbEntity
  8
提案-文字
100
AcDbText
 10
7475.0
 20
12330.0
 30
0.0
 40
240.0
  1
主臥
 72
1
 11
7475.0
 21
12330.0
 31
0.0
100
AcDbText
 73
2
  0
TEXT
  5
187
330
17
100
AcDbEntity
  8
提案-文字
100
AcDbText
 10
7475.0
 20
11990.0
 30
0.0
 40
160.0
  1
3.65坪
 72
1
 11
7475.0
 21
11990.0
 31
0.0
100
AcDbText
 73
2
  0
TEXT
  5
188
330
17
100
AcDbEntity
  8
提案-文字
100
AcDbText
 10
10850.0
 20
12330.0
 30
0.0
 40
240.0
  1
女兒房1
 72
1
 11
10850.0
 21
12330.0
 31
0.0
100
AcDbText
 73
2
  0
TEXT
  5
189
330
17
100
AcDbEntity
  8
提案-文字
100
AcDbText
 10
10850.0
 20
11990.0
 30
0.0
 40
160.0
  1
3.41坪
 72
1
 11
10850.0
 21
11990.0
 31
0.0
100
AcDbText
 73
2
  0
TEXT
  5
18A
330
17
100
AcDbEntity
  8
提案-文字
100
AcDbText
 10
13850.0
 20
12330.0
 30
0.0
 40
240.0
  1
女兒房2
 72
1
 11
13850.0
 21
12330.0
 31
0.0
100
AcDbText
 73
2
  0
TEXT
  5
18B
330
17
100
AcDbEntity
  8
提案-文字
100
AcDbText
 10
13850.0
 20
11990.0
 30
0.0
 40
160.0
  1
3.41坪
 72
1
 11
13850.0
 21
11990.0
 31
0.0
100
AcDbText
 73
2
  0
TEXT
  5
18C
330
17
100
AcDbEntity
  8
提案-文字
100
AcDbText
 10
16100.0
 20
12330.0
 30
0.0
 40
240.0
  1
幫傭房
 72
1
 11
16100.0
 21
12330.0
 31
0.0
100
AcDbText
 73
2
  0
TEXT
  5
18D
330
17
100
AcDbEntity
  8
提案-文字
100
AcDbText
 10
16100.0
 20
11990.0
 30
0.0
 40
160.0
  1
1.71坪
 72
1
 11
16100.0
 21
11990.0
 31
0.0
100
AcDbText
 73
2
  0
TEXT
  5
18E
330
17
100
AcDbEntity
  8
提案-文字
100
AcDbText
 10
9350.0
 20
9525.0
 30
0.0
 40
240.0
  1
走道
 72
1
 11
9350.0
 21
9525.0
 31
0.0
100
AcDbText
 73
2
  0
TEXT
  5
18F
330
17
100
AcDbEntity
  8
提案-文字
100
AcDbText
 10
9350.0
 20
9185.0
 30
0.0
 40
160.0
  1
4.20坪
 72
1
 11
9350.0
 21
9185.0
 31
0.0
100
AcDbText
 73
2
  0
TEXT
  5
190
330
17
100
AcDbEntity
  8
提案-文字
100
AcDbText
 10
14515.0
 20
9525.0
 30
0.0
 40
240.0
  1
玄關
 72
1
 11
14515.0
 21
9525.0
 31
0.0
100
AcDbText
 73
2
  0
TEXT
  5
191
330
17
100
AcDbEntity
  8
提案-文字
100
AcDbText
 10
14515.0
 20
9185.0
 30
0.0
 40
160.0
  1
1.58坪
 72
1
 11
14515.0
 21
9185.0
 31
0.0
100
AcDbText
 73
2
  0
TEXT
  5
192
330
17
100
AcDbEntity
  8
提案-文字
100
AcDbText
 10
8725.0
 20
7750.0
 30
0.0
 40
240.0
  1
餐廚核心
 72
1
 11
8725.0
 21
7750.0
 31
0.0
100
AcDbText
 73
2
  0
TEXT
  5
193
330
17
100
AcDbEntity
  8
提案-文字
100
AcDbText
 10
8725.0
 20
7410.0
 30
0.0
 40
160.0
  1
13.37坪
 72
1
 11
8725.0
 21
7410.0
 31
0.0
100
AcDbText
 73
2
  0
ENDSEC
  0
SECTION
  2
OBJECTS
  0
DICTIONARY
  5
A
330
0
100
AcDbDictionary
281
1
  3
ACAD_COLOR
350
B
  3
ACAD_GROUP
350
C
  3
ACAD_LAYOUT
350
D
  3
ACAD_MATERIAL
350
E
  3
ACAD_MLEADERSTYLE
350
F
  3
ACAD_MLINESTYLE
350
10
  3
ACAD_PLOTSETTINGS
350
11
  3
ACAD_PLOTSTYLENAME
350
12
  3
ACAD_SCALELIST
350
14
  3
ACAD_TABLESTYLE
350
15
  3
ACAD_VISUALSTYLE
350
16
  3
EZDXF_META
350
2D
  0
DICTIONARY
  5
B
330
A
100
AcDbDictionary
281
1
  0
DICTIONARY
  5
C
330
A
100
AcDbDictionary
281
1
  0
DICTIONARY
  5
D
330
A
100
AcDbDictionary
281
1
  3
Model
350
1A
  3
Layout1
350
1E
  0
DICTIONARY
  5
E
330
A
100
AcDbDictionary
281
1
  3
ByBlock
350
1F
  3
ByLayer
350
20
  3
Global
350
21
  0
DICTIONARY
  5
F
330
A
100
AcDbDictionary
281
1
  3
Standard
350
2C
  0
DICTIONARY
  5
10
330
A
100
AcDbDictionary
281
1
  3
Standard
350
22
  0
DICTIONARY
  5
11
330
A
100
AcDbDictionary
281
1
  0
ACDBDICTIONARYWDFLT
  5
12
330
A
100
AcDbDictionary
281
1
  3
Normal
350
13
100
AcDbDictionaryWithDefault
340
13
  0
ACDBPLACEHOLDER
  5
13
330
12
  0
DICTIONARY
  5
14
330
A
100
AcDbDictionary
281
1
  0
DICTIONARY
  5
15
330
A
100
AcDbDictionary
281
1
  0
DICTIONARY
  5
16
330
A
100
AcDbDictionary
281
1
  3
2dWireframe
350
5A
  3
Basic
350
5B
  3
Brighten
350
5C
  3
ColorChange
350
5D
  3
Conceptual
350
5E
  3
Dim
350
5F
  3
EdgeColorOff
350
60
  3
Facepattern
350
61
  3
Flat
350
62
  3
FlatWithEdges
350
63
  3
Gouraud
350
64
  3
GouraudWithEdges
350
65
  3
Hidden
350
66
  3
JitterOff
350
67
  3
Linepattern
350
68
  3
Modeling
350
69
  3
OverhangOff
350
6A
  3
Realistic
350
6B
  3
Shaded
350
6C
  3
Shaded with edges
350
6D
  3
Shades of Gray
350
6E
  3
Sketchy
350
6F
  3
Thicken
350
70
  3
Wireframe
350
71
  3
X-Ray
350
72
  0
LAYOUT
  5
1A
330
D
100
AcDbPlotSettings
  1

  4
A3
  6

 40
7.5
 41
20.0
 42
7.5
 43
20.0
 44
420.0
 45
297.0
 46
0.0
 47
0.0
 48
0.0
 49
0.0
140
0.0
141
0.0
142
1.0
143
1.0
 70
1024
 72
1
 73
0
 74
5
  7

 75
16
 76
0
 77
2
 78
300
147
1.0
148
0.0
149
0.0
100
AcDbLayout
  1
Model
 70
1
 71
0
 10
0.0
 20
0.0
 11
420.0
 21
297.0
 12
0.0
 22
0.0
 32
0.0
 14
1e+20
 24
1e+20
 34
1e+20
 15
-1e+20
 25
-1e+20
 35
-1e+20
146
0.0
 13
0.0
 23
0.0
 33
0.0
 16
1.0
 26
0.0
 36
0.0
 17
0.0
 27
1.0
 37
0.0
 76
1
330
17
  0
LAYOUT
  5
1E
330
D
100
AcDbPlotSettings
  1

  4
A3
  6

 40
7.5
 41
20.0
 42
7.5
 43
20.0
 44
420.0
 45
297.0
 46
0.0
 47
0.0
 48
0.0
 49
0.0
140
0.0
141
0.0
142
1.0
143
1.0
 70
0
 72
1
 73
0
 74
5
  7

 75
16
 76
0
 77
2
 78
300
147
1.0
148
0.0
149
0.0
100
AcDbLayout
  1
Layout1
 70
1
 71
1
 10
0.0
 20
0.0
 11
420.0
 21
297.0
 12
0.0
 22
0.0
 32
0.0
 14
1e+20
 24
1e+20
 34
1e+20
 15
-1e+20
 25
-1e+20
 35
-1e+20
146
0.0
 13
0.0
 23
0.0
 33
0.0
 16
1.0
 26
0.0
 36
0.0
 17
0.0
 27
1.0
 37
0.0
 76
1
330
1B
  0
MATERIAL
  5
1F
102
{ACAD_REACTORS
330
E
102
}
330
E
100
AcDbMaterial
  1
ByBlock
  2

 70
0
 40
1.0
 71
1
 41
1.0
 91
-1023410177
 42
1.0
 72
1
  3

 73
1
 74
1
 75
1
 44
0.5
 73
0
 45
1.0
 46
1.0
 77
1
  4

 78
1
 79
1
170
1
 48
1.0
171
1
  6

172
1
173
1
174
1
140
1.0
141
1.0
175
1
  7

176
1
177
1
178
1
143
1.0
179
1
  8

270
1
271
1
272
1
145
1.0
146
1.0
273
1
  9

274
1
275
1
276
1
 42
1.0
 72
1
  3

 73
1
 74
1
 75
1
 94
63
  0
MATERIAL
  5
20
102
{ACAD_REACTORS
330
E
102
}
330
E
100
AcDbMaterial
  1
ByLayer
  2

 70
0
 40
1.0
 71
1
 41
1.0
 91
-1023410177
 42
1.0
 72
1
  3

 73
1
 74
1
 75
1
 44
0.5
 73
0
 45
1.0
 46
1.0
 77
1
  4

 78
1
 79
1
170
1
 48
1.0
171
1
  6

172
1
173
1
174
1
140
1.0
141
1.0
175
1
  7

176
1
177
1
178
1
143
1.0
179
1
  8

270
1
271
1
272
1
145
1.0
146
1.0
273
1
  9

274
1
275
1
276
1
 42
1.0
 72
1
  3

 73
1
 74
1
 75
1
 94
63
  0
MATERIAL
  5
21
102
{ACAD_REACTORS
330
E
102
}
330
E
100
AcDbMaterial
  1
Global
  2

 70
0
 40
1.0
 71
1
 41
1.0
 91
-1023410177
 42
1.0
 72
1
  3

 73
1
 74
1
 75
1
 44
0.5
 73
0
 45
1.0
 46
1.0
 77
1
  4

 78
1
 79
1
170
1
 48
1.0
171
1
  6

172
1
173
1
174
1
140
1.0
141
1.0
175
1
  7

176
1
177
1
178
1
143
1.0
179
1
  8

270
1
271
1
272
1
145
1.0
146
1.0
273
1
  9

274
1
275
1
276
1
 42
1.0
 72
1
  3

 73
1
 74
1
 75
1
 94
63
  0
MLINESTYLE
  5
22
102
{ACAD_REACTORS
330
10
102
}
330
10
100
AcDbMlineStyle
  2
Standard
 70
0
  3

 62
256
 51
90.0
 52
90.0
 71
2
 49
0.5
 62
256
  6
BYLAYER
 49
-0.5
 62
256
  6
BYLAYER
  0
MLEADERSTYLE
  5
2C
102
{ACAD_REACTORS
330
F
102
}
330
F
100
AcDbMLeaderStyle
179
2
170
2
171
1
172
0
 90
2
 40
0.0
 41
0.0
173
1
 91
-1056964608
 92
-2
290
1
 42
2.0
291
1
 43
8.0
  3
Standard
 44
4.0
300

342
29
174
1
175
1
176
0
178
1
 93
-1056964608
 45
4.0
292
0
297
0
 46
4.0
 94
-1056964608
 47
1.0
 49
1.0
140
1.0
294
1
141
0.0
177
0
142
1.0
295
0
296
0
143
3.75
271
0
272
9
273
9
  0
DICTIONARY
  5
2D
330
A
100
AcDbDictionary
280
1
281
1
  3
CREATED_BY_EZDXF
350
2E
  3
WRITTEN_BY_EZDXF
350
196
  0
DICTIONARYVAR
  5
2E
330
2D
100
DictionaryVariables
280
0
  1
1.4.4 @ 2026-08-22T10:21:14.293170+00:00
  0
VISUALSTYLE
  5
5A
102
{ACAD_REACTORS
330
16
102
}
330
16
100
AcDbVisualStyle
  2
2dWireframe
 70
4
 90
0
 40
0.6
 62
7
290
0
291
0
  0
VISUALSTYLE
  5
5B
102
{ACAD_REACTORS
330
16
102
}
330
16
100
AcDbVisualStyle
  2
Basic
 70
7
 90
1
 40
0.6
 62
7
290
0
291
1
  0
VISUALSTYLE
  5
5C
102
{ACAD_REACTORS
330
16
102
}
330
16
100
AcDbVisualStyle
  2
Brighten
 70
12
 90
2
 40
0.6
 62
7
290
0
291
1
  0
VISUALSTYLE
  5
5D
102
{ACAD_REACTORS
330
16
102
}
330
16
100
AcDbVisualStyle
  2
ColorChange
 70
16
 90
2
 40
0.6
 62
8
290
0
291
1
  0
VISUALSTYLE
  5
5E
102
{ACAD_REACTORS
330
16
102
}
330
16
100
AcDbVisualStyle
  2
Conceptual
 70
9
 90
3
 40
0.6
 62
7
290
0
291
0
  0
VISUALSTYLE
  5
5F
102
{ACAD_REACTORS
330
16
102
}
330
16
100
AcDbVisualStyle
  2
Dim
 70
11
 90
2
 40
0.6
 62
7
290
0
291
1
  0
VISUALSTYLE
  5
60
102
{ACAD_REACTORS
330
16
102
}
330
16
100
AcDbVisualStyle
  2
EdgeColorOff
 70
22
 90
2
 40
0.6
 62
7
290
0
291
1
  0
VISUALSTYLE
  5
61
102
{ACAD_REACTORS
330
16
102
}
330
16
100
AcDbVisualStyle
  2
Facepattern
 70
15
 90
2
 40
0.6
 62
7
290
0
291
1
  0
VISUALSTYLE
  5
62
102
{ACAD_REACTORS
330
16
102
}
330
16
100
AcDbVisualStyle
  2
Flat
 70
0
 90
2
 40
0.6
 62
7
290
0
291
1
  0
VISUALSTYLE
  5
63
102
{ACAD_REACTORS
330
16
102
}
330
16
100
AcDbVisualStyle
  2
FlatWithEdges
 70
1
 90
2
 40
0.6
 62
7
290
0
291
1
  0
VISUALSTYLE
  5
64
102
{ACAD_REACTORS
330
16
102
}
330
16
100
AcDbVisualStyle
  2
Gouraud
 70
2
 90
2
 40
0.6
 62
7
290
0
291
1
  0
VISUALSTYLE
  5
65
102
{ACAD_REACTORS
330
16
102
}
330
16
100
AcDbVisualStyle
  2
GouraudWithEdges
 70
3
 90
2
 40
0.6
 62
7
290
0
291
1
  0
VISUALSTYLE
  5
66
102
{ACAD_REACTORS
330
16
102
}
330
16
100
AcDbVisualStyle
  2
Hidden
 70
6
 90
1
 40
0.6
 62
7
290
0
291
0
  0
VISUALSTYLE
  5
67
102
{ACAD_REACTORS
330
16
102
}
330
16
100
AcDbVisualStyle
  2
JitterOff
 70
20
 90
2
 40
0.6
 62
7
290
0
291
1
  0
VISUALSTYLE
  5
68
102
{ACAD_REACTORS
330
16
102
}
330
16
100
AcDbVisualStyle
  2
Linepattern
 70
14
 90
2
 40
0.6
 62
7
290
0
291
1
  0
VISUALSTYLE
  5
69
102
{ACAD_REACTORS
330
16
102
}
330
16
100
AcDbVisualStyle
  2
Modeling
 70
10
 90
2
 40
0.6
 62
7
290
0
291
0
  0
VISUALSTYLE
  5
6A
102
{ACAD_REACTORS
330
16
102
}
330
16
100
AcDbVisualStyle
  2
OverhangOff
 70
21
 90
2
 40
0.6
 62
7
290
0
291
1
  0
VISUALSTYLE
  5
6B
102
{ACAD_REACTORS
330
16
102
}
330
16
100
AcDbVisualStyle
  2
Realistic
 70
8
 90
2
 40
0.6
 62
7
290
0
291
0
  0
VISUALSTYLE
  5
6C
102
{ACAD_REACTORS
330
16
102
}
330
16
100
AcDbVisualStyle
  2
Shaded
 70
27
 90
2
 40
0.6
 62
7
290
0
291
0
  0
VISUALSTYLE
  5
6D
102
{ACAD_REACTORS
330
16
102
}
330
16
100
AcDbVisualStyle
  2
Shaded with edges
 70
26
 90
2
 40
0.6
 62
7
290
0
291
0
  0
VISUALSTYLE
  5
6E
102
{ACAD_REACTORS
330
16
102
}
330
16
100
AcDbVisualStyle
  2
Shades of Gray
 70
23
 90
2
 40
0.6
 62
7
290
0
291
0
  0
VISUALSTYLE
  5
6F
102
{ACAD_REACTORS
330
16
102
}
330
16
100
AcDbVisualStyle
  2
Sketchy
 70
24
 90
1
 40
0.6
 62
7
290
0
291
0
  0
VISUALSTYLE
  5
70
102
{ACAD_REACTORS
330
16
102
}
330
16
100
AcDbVisualStyle
  2
Thicken
 70
13
 90
2
 40
0.6
 62
7
290
0
291
1
  0
VISUALSTYLE
  5
71
102
{ACAD_REACTORS
330
16
102
}
330
16
100
AcDbVisualStyle
  2
Wireframe
 70
5
 90
0
 40
0.6
 62
7
290
0
291
0
  0
VISUALSTYLE
  5
72
102
{ACAD_REACTORS
330
16
102
}
330
16
100
AcDbVisualStyle
  2
X-Ray
 70
25
 90
2
 40
0.5
 62
7
290
0
291
0
  0
DICTIONARYVAR
  5
196
330
2D
100
DictionaryVariables
280
0
  1
1.4.4 @ 2026-08-22T10:21:14.305318+00:00
  0
ENDSEC
  0
EOF
